<?xml version="1.0" standalone="no"?>
<!DOCTYPE svg PUBLIC "-//W3C//DTD SVG 20010904//EN"
 "http://www.w3.org/TR/2001/REC-SVG-20010904/DTD/svg10.dtd">
<svg version="1.0" xmlns="http://www.w3.org/2000/svg"
 width="25833.000000pt" height="6458.000000pt" viewBox="0 0 25833.000000 6458.000000"
 preserveAspectRatio="xMidYMid meet">

<g transform="translate(0.000000,6458.000000) scale(0.100000,-0.100000)"
fill="#000000" stroke="none">
<path d="M171557 47364 c-1 -1 -42 -5 -92 -8 -49 -4 -110 -8 -135 -11 -25 -2
-83 -7 -130 -10 -72 -6 -150 -18 -247 -39 -64 -14 -183 -52 -298 -95 -450
-169 -837 -372 -1320 -690 -38 -25 -88 -59 -111 -76 -22 -16 -78 -57 -123 -90
-45 -33 -99 -73 -120 -90 -21 -16 -55 -43 -77 -60 -69 -54 -168 -138 -259
-220 -84 -76 -285 -245 -386 -325 -82 -64 -294 -284 -429 -445 -224 -266 -392
-499 -531 -735 -404 -689 -716 -1527 -913 -2450 -64 -302 -128 -718 -171
-1115 -19 -181 -33 -270 -85 -570 -22 -126 -63 -394 -91 -595 -53 -387 -192
-1290 -234 -1525 -118 -663 -149 -815 -247 -1195 -60 -237 -224 -745 -338
-1050 -191 -512 -402 -931 -802 -1595 -187 -311 -411 -654 -438 -670 -5 -3
-35 7 -67 23 -79 40 -228 95 -343 127 -52 14 -144 41 -205 59 -60 19 -123 38
-140 42 -16 4 -34 8 -40 10 -339 87 -734 112 -1110 69 -198 -23 -507 -103
-772 -199 -133 -49 -462 -221 -601 -315 -46 -31 -93 -63 -106 -71 -220 -149
-553 -469 -731 -704 -195 -257 -236 -319 -341 -521 -165 -319 -285 -651 -350
-973 -6 -30 -9 -29 -223 75 -274 132 -693 403 -891 574 -67 59 -70 60 -130
109 -31 25 -71 59 -90 76 -19 17 -62 55 -95 84 -160 141 -255 231 -435 410
-107 107 -217 220 -244 250 -42 47 -267 289 -317 341 -31 32 -205 225 -264
294 -76 87 -177 205 -232 270 -23 28 -50 60 -60 71 -10 12 -29 36 -43 55 -44
58 -344 424 -356 434 -7 6 -29 30 -49 55 -42 50 -111 130 -231 264 -44 50
-122 141 -174 201 -51 61 -96 112 -99 115 -3 3 -31 34 -60 70 -30 36 -60 70
-66 75 -12 11 -152 175 -205 240 -74 91 -184 220 -195 230 -14 13 -160 190
-243 298 -131 168 -234 309 -367 502 -27 39 -63 90 -80 115 -139 199 -381 657
-469 885 -15 39 -34 86 -41 105 -51 125 -106 287 -102 300 3 8 19 60 37 115
131 416 178 750 200 1415 22 680 -24 1273 -170 2191 -105 664 -209 1080 -395
1584 -189 512 -358 855 -596 1212 -207 311 -532 668 -809 887 -57 45 -170 126
-175 126 -2 0 -24 14 -49 30 -24 17 -82 49 -128 72 -46 22 -115 65 -153 94
-78 59 -172 105 -254 124 -52 12 -209 9 -271 -5 -14 -3 -38 -7 -55 -10 -16 -2
-41 -7 -55 -10 -14 -3 -39 -7 -57 -10 -18 -2 -58 -8 -90 -14 -32 -5 -74 -12
-95 -15 -64 -10 -190 -55 -268 -97 -41 -23 -77 -44 -80 -48 -3 -4 -29 -21 -57
-39 -29 -17 -61 -40 -71 -49 -10 -10 -35 -31 -56 -48 -44 -36 -55 -45 -177
-155 -160 -144 -318 -301 -393 -390 -278 -330 -527 -828 -746 -1490 -144 -437
-224 -928 -245 -1500 -4 -96 -8 -200 -10 -230 -8 -112 -5 -347 4 -415 6 -38
10 -103 11 -143 0 -40 4 -115 10 -165 5 -51 14 -144 21 -207 29 -299 109 -855
169 -1173 6 -33 9 -61 7 -63 -3 -3 0 -22 5 -42 5 -20 13 -57 18 -82 8 -48 46
-228 85 -405 14 -60 43 -180 65 -265 80 -312 75 -272 56 -427 -30 -245 -47
-557 -41 -733 15 -437 33 -671 85 -1110 16 -135 34 -308 40 -385 44 -567 77
-844 132 -1120 38 -193 152 -665 203 -840 8 -27 28 -99 46 -160 17 -60 63
-213 101 -340 38 -126 78 -261 89 -300 55 -188 120 -380 185 -545 29 -74 64
-165 77 -201 39 -104 158 -335 252 -491 134 -219 118 -190 255 -468 45 -91
113 -223 150 -295 37 -71 100 -193 140 -270 116 -224 181 -346 213 -400 16
-27 38 -63 47 -80 9 -16 95 -158 190 -315 95 -157 181 -298 190 -315 99 -168
160 -279 170 -309 6 -20 15 -36 20 -36 5 0 11 -13 15 -29 3 -16 13 -35 20 -41
8 -7 17 -27 21 -46 3 -19 10 -34 15 -34 5 0 9 -7 9 -15 0 -8 5 -15 10 -15 6 0
10 -7 10 -15 0 -9 9 -25 20 -37 11 -12 20 -30 20 -40 0 -10 4 -18 10 -18 5 0
21 -24 35 -52 41 -84 58 -112 70 -123 7 -5 19 -25 26 -42 8 -18 17 -33 21 -33
5 0 8 -5 8 -11 0 -5 18 -37 40 -69 22 -32 40 -66 40 -74 0 -9 6 -16 13 -16 7
0 20 -16 27 -36 8 -20 21 -41 30 -48 21 -15 50 -62 50 -79 0 -8 11 -22 24 -30
12 -9 31 -32 40 -51 9 -20 21 -36 26 -36 6 0 10 -6 10 -13 0 -7 9 -18 20 -25
11 -7 20 -23 20 -37 0 -18 7 -28 24 -35 15 -5 27 -20 31 -39 4 -17 13 -31 20
-31 7 0 15 -7 19 -15 11 -30 241 -370 333 -494 73 -98 251 -358 538 -786 295
-442 281 -420 504 -730 154 -215 337 -459 473 -635 32 -41 89 -115 127 -165
38 -49 104 -135 146 -190 42 -55 163 -215 269 -355 268 -356 469 -615 514
-665 16 -16 63 -75 106 -130 43 -55 84 -104 90 -110 11 -9 99 -115 352 -425
61 -74 149 -184 196 -245 47 -60 96 -121 110 -135 14 -14 60 -70 103 -125 44
-55 84 -104 91 -110 6 -5 69 -80 139 -165 70 -85 131 -157 134 -160 3 -3 31
-34 61 -70 29 -36 61 -72 70 -80 9 -8 41 -44 70 -80 30 -36 58 -67 61 -70 3
-3 30 -34 59 -70 69 -84 121 -142 239 -265 53 -55 134 -142 181 -194 47 -52
98 -108 114 -125 50 -54 190 -229 234 -293 81 -118 157 -306 202 -499 18 -78
50 -305 50 -358 l0 -26 -19244 0 c-17184 0 -19253 -2 -19331 -15 -215 -38
-388 -127 -540 -280 -129 -129 -214 -275 -264 -454 l-26 -96 0 -2090 0 -2090
26 -96 c50 -179 135 -325 264 -454 152 -153 325 -242 540 -280 77 -13 453 -15
3151 -15 l3064 0 0 -1030 0 -1030 -3064 0 c-2698 0 -3074 -2 -3151 -15 -215
-38 -388 -127 -540 -280 -129 -129 -214 -275 -264 -454 l-26 -96 0 -2090 0
-2090 26 -96 c50 -179 135 -325 264 -454 152 -153 325 -242 540 -280 77 -13
453 -15 3151 -15 l3064 0 0 -2605 0 -2605 -3814 0 c-3369 0 -3824 -2 -3901
-15 -215 -38 -388 -127 -540 -280 -130 -129 -215 -277 -263 -454 -24 -91 -26
-113 -30 -393 l-4 -298 44252 0 44252 0 -4 298 c-4 280 -6 302 -30 393 -48
177 -133 325 -263 454 -152 153 -325 242 -540 280 -78 13 -590 15 -4456 15
l-4369 0 0 2605 0 2605 3264 0 c2877 0 3274 2 3351 15 215 38 388 127 540 280
129 129 214 275 264 454 l26 96 0 2090 0 2090 -26 96 c-50 179 -135 325 -264
454 -152 153 -325 242 -540 280 -77 13 -474 15 -3351 15 l-3264 0 0 1030 0
1030 3264 0 c2877 0 3274 2 3351 15 215 38 388 127 540 280 129 129 214 275
264 454 l26 96 0 2090 0 2090 -26 96 c-50 179 -135 325 -264 454 -152 153
-325 242 -540 280 -78 13 -1213 15 -10411 15 -5678 0 -10324 2 -10324 4 0 2
41 96 91 208 296 658 412 1013 728 2223 123 471 168 690 252 1235 27 179 61
391 74 472 30 176 69 496 86 708 15 189 16 412 1 1255 -12 751 -24 899 -112
1400 -30 169 -32 179 -95 460 -62 273 -214 840 -260 970 -7 22 -28 81 -46 130
-30 85 -73 193 -103 260 -8 17 -23 50 -34 75 -76 169 -223 481 -338 715 -58
118 -155 296 -198 365 -40 63 -108 164 -128 190 -10 14 -62 84 -115 155 -52
72 -102 137 -109 145 -8 8 -60 71 -116 140 -112 137 -350 380 -468 477 -168
137 -287 236 -316 261 -17 15 -52 43 -78 62 -26 19 -73 55 -104 78 -31 24 -93
65 -137 91 -87 52 -339 177 -383 191 -15 5 -52 18 -82 30 -30 12 -71 26 -90
32 -19 5 -39 14 -45 18 -5 4 -21 10 -35 13 -14 3 -59 15 -100 27 -41 12 -82
23 -90 25 -32 9 -196 46 -225 50 -16 3 -56 10 -88 16 -32 5 -72 12 -90 14 -56
6 -141 16 -172 20 -16 2 -57 6 -90 9 -33 3 -76 8 -95 11 -19 3 -53 7 -75 10
-22 3 -92 12 -155 20 -297 38 -654 40 -985 5 -105 -11 -154 -16 -245 -25 -30
-3 -66 -8 -80 -10 -24 -4 -160 -22 -220 -30 -16 -2 -32 0 -35 5 -3 5 46 86
108 182 445 678 730 1275 1045 2188 82 236 160 493 208 680 111 434 214 1057
273 1650 41 401 46 519 46 995 -1 482 -14 723 -61 1120 -52 441 -154 986 -239
1275 -7 25 -23 81 -35 125 -100 363 -193 636 -338 1000 -55 138 -134 336 -176
441 -42 105 -88 218 -102 250 -15 32 -59 140 -99 239 -130 324 -313 673 -527
1008 -15 23 -43 69 -63 102 -44 74 -119 190 -294 454 -117 176 -169 252 -241
356 -8 12 -24 35 -34 51 -11 16 -24 34 -30 39 -6 6 -23 28 -39 51 -15 22 -48
63 -72 90 -24 27 -44 52 -45 56 0 3 -19 30 -43 60 -23 29 -56 73 -72 96 -29
44 -145 202 -187 256 -125 161 -386 420 -576 571 -7 5 -21 17 -30 26 -9 9 -71
57 -137 107 -66 51 -138 107 -160 125 -51 42 -199 143 -275 187 -19 11 -57 34
-85 50 -183 110 -576 279 -835 361 -52 17 -104 34 -115 39 -97 44 -506 123
-800 154 -90 10 -811 27 -818 20z m-24457 -32856 c15 -97 45 -221 71 -287 32
-86 132 -275 214 -406 41 -66 78 -127 82 -135 6 -14 72 -103 246 -335 89 -117
206 -295 312 -470 55 -91 175 -327 175 -344 0 -8 -2661 -11 -10050 -11
l-10050 0 0 1030 0 1030 9494 0 9494 0 12 -72z m7915 -25 c43 -108 129 -328
149 -383 189 -501 324 -907 380 -1140 13 -56 26 -153 52 -388 l5 -52 -2542 2
-2542 3 -64 225 c-161 572 -261 865 -411 1205 -80 181 -256 532 -292 580 -4 6
-10 18 -13 28 -6 16 123 17 2616 17 l2623 0 39 -97z m15861 89 c6 -4 37 -38
69 -77 91 -112 311 -332 470 -470 31 -27 66 -58 77 -68 33 -31 140 -119 203
-168 142 -110 352 -226 540 -299 61 -24 124 -48 140 -55 51 -22 246 -85 261
-85 8 0 22 -4 32 -10 9 -5 37 -14 62 -19 25 -5 83 -19 130 -31 281 -70 326
-75 765 -75 409 0 477 5 755 56 214 39 307 66 487 140 81 33 220 90 308 125
275 112 437 204 778 444 99 69 240 167 315 219 285 195 522 363 527 372 4 5
2956 9 7841 9 l7834 0 0 -1030 0 -1030 -13374 0 -13373 0 47 203 c26 111 66
285 90 387 52 227 193 786 264 1050 29 107 66 246 82 308 l29 112 2315 0
c1273 0 2320 -4 2326 -8z m-22462 -7934 c2 -7 16 -65 31 -128 14 -63 57 -232
95 -376 60 -224 93 -327 200 -631 51 -145 176 -385 308 -593 170 -267 301
-426 500 -610 57 -52 110 -101 117 -107 8 -7 17 -13 21 -13 4 0 25 -15 48 -33
136 -111 376 -259 586 -360 165 -81 208 -98 365 -147 25 -7 147 -37 231 -55
27 -6 154 -24 219 -32 101 -12 293 -7 365 9 17 4 17 2 -4 -116 -9 -49 -16
-105 -16 -126 0 -40 8 -31 -146 -155 -20 -16 -55 -45 -78 -63 -23 -18 -48 -39
-56 -45 -8 -7 -30 -23 -48 -36 -19 -13 -45 -34 -59 -47 -14 -13 -29 -24 -34
-24 -4 0 -15 -8 -25 -17 -17 -17 -41 -34 -150 -107 -33 -22 -61 -42 -64 -46
-3 -4 -25 -20 -50 -35 -25 -15 -47 -31 -50 -35 -5 -7 -83 -59 -184 -124 -34
-21 -63 -42 -66 -45 -3 -4 -34 -25 -70 -46 -36 -21 -67 -42 -70 -45 -3 -3 -41
-28 -85 -54 -44 -27 -82 -52 -85 -56 -18 -29 -546 -302 -780 -403 -74 -33
-164 -72 -200 -88 -68 -30 -205 -86 -325 -134 -38 -15 -101 -40 -140 -55 -113
-45 -153 -60 -275 -100 -63 -21 -133 -45 -155 -53 -22 -8 -77 -26 -121 -41
l-81 -26 -9992 0 -9991 0 0 2605 0 2605 10155 0 c8116 0 10156 -3 10159 -12z
m44056 -2593 l0 -2605 -13178 0 -13179 0 -6 143 c-4 78 -7 212 -7 297 0 145
-4 257 -30 820 -6 124 -14 342 -20 485 -15 408 -49 1145 -60 1315 -21 315 -30
457 -35 535 -9 148 -25 389 -35 525 -6 74 -20 259 -31 410 -11 151 -24 327
-29 390 -6 63 -13 154 -16 203 l-7 87 13317 0 13316 0 0 -2605z"/>
<path d="M227443 27050 c-49 -30 -87 -94 -88 -149 -1 -25 -8 -82 -17 -126 -24
-117 -43 -416 -63 -970 -3 -79 -11 -145 -25 -192 -12 -44 -20 -103 -20 -147 0
-41 -6 -105 -14 -143 -8 -37 -17 -93 -20 -123 -18 -187 -27 -333 -23 -352 3
-12 -1 -52 -8 -90 -18 -84 -20 -418 -4 -534 6 -42 24 -110 40 -151 16 -40 36
-108 45 -150 15 -75 44 -145 64 -158 5 -3 14 -25 20 -48 6 -23 17 -55 24 -72
23 -53 80 -169 102 -205 11 -19 26 -51 34 -70 8 -19 28 -53 46 -75 17 -22 39
-53 48 -70 9 -16 37 -57 61 -90 24 -33 54 -79 67 -102 12 -24 25 -43 30 -43 6
0 56 -67 135 -185 12 -18 50 -57 83 -86 34 -30 86 -88 115 -130 67 -96 144
-172 200 -199 24 -12 49 -28 57 -37 7 -9 40 -36 73 -60 33 -24 74 -55 90 -69
38 -32 143 -94 160 -94 6 0 20 -9 31 -21 10 -11 53 -45 96 -75 67 -47 87 -55
150 -65 128 -19 122 -15 129 -94 8 -82 47 -201 83 -254 28 -41 47 -122 68
-291 16 -131 15 -689 -3 -2085 -14 -1027 -16 -1065 -49 -1065 -17 0 -70 75
-76 110 -4 19 -13 47 -20 62 -10 20 -14 77 -14 220 -1 253 -23 376 -103 560
-30 69 -67 142 -82 161 -14 20 -31 51 -36 71 -5 19 -25 56 -45 83 -19 26 -43
67 -54 90 -28 58 -90 135 -180 223 -44 42 -82 89 -88 107 -6 18 -26 54 -44 80
-52 77 -506 513 -533 513 -13 0 -100 65 -164 123 -36 33 -97 80 -136 105 -38
25 -126 83 -195 128 -127 85 -203 123 -281 144 -24 7 -73 27 -109 45 -36 18
-94 42 -130 54 -35 13 -88 34 -117 48 -29 13 -79 28 -111 33 -31 4 -103 26
-159 49 -218 87 -402 122 -639 120 -431 -2 -892 -41 -1082 -90 -43 -11 -133
-47 -202 -79 -69 -33 -186 -80 -260 -105 -133 -46 -251 -100 -380 -175 -60
-35 -96 -54 -247 -128 -57 -28 -163 -66 -214 -76 -41 -9 -109 -64 -126 -104
-18 -44 -11 -98 17 -126 16 -16 39 -22 113 -27 117 -9 243 -35 283 -59 18 -10
70 -28 115 -40 102 -26 215 -96 418 -261 31 -25 72 -56 91 -69 70 -48 142
-117 227 -220 49 -57 108 -126 133 -151 43 -45 97 -107 246 -284 168 -199 649
-690 724 -740 25 -16 87 -67 138 -112 51 -46 96 -83 101 -83 5 0 49 -30 98
-67 48 -36 108 -77 133 -90 25 -13 48 -30 53 -38 13 -24 153 -124 184 -131 41
-11 145 -60 173 -83 75 -60 181 -133 220 -152 25 -12 65 -31 89 -42 25 -12 62
-36 83 -54 45 -38 53 -40 160 -57 46 -8 121 -27 168 -44 121 -44 211 -56 355
-47 66 5 167 9 225 10 96 1 111 4 172 33 46 22 107 39 190 53 105 18 136 28
217 70 51 27 100 49 107 49 8 0 33 17 57 39 23 21 60 47 82 57 22 10 65 44 95
76 31 32 62 58 70 58 29 0 99 -45 169 -107 38 -35 73 -63 76 -63 4 0 20 -9 36
-20 41 -30 49 -71 34 -171 -7 -48 -16 -235 -19 -434 -7 -343 -15 -521 -36
-778 -6 -70 -12 -266 -15 -435 -2 -169 -8 -329 -14 -357 -6 -30 -12 -381 -15
-875 -3 -478 -9 -865 -15 -920 -6 -52 -16 -279 -21 -505 -5 -225 -14 -498 -19
-605 -18 -357 -32 -815 -37 -1202 -4 -264 -10 -408 -20 -464 -8 -44 -14 -110
-14 -147 0 -60 -2 -68 -25 -83 -21 -14 -30 -14 -55 -4 -16 7 -35 18 -41 26
-22 27 -36 127 -27 195 9 72 3 368 -13 564 -8 98 -18 151 -40 215 -16 46 -29
94 -29 107 0 12 -7 48 -15 80 -9 32 -20 100 -25 152 -6 54 -19 113 -31 140
-28 62 -58 147 -70 199 -5 24 -27 80 -48 125 -43 93 -66 156 -76 207 -4 19
-28 66 -53 104 -42 61 -47 74 -45 118 3 63 -16 109 -56 139 -18 13 -45 44 -61
70 -17 25 -42 59 -55 75 -14 16 -28 38 -31 49 -3 11 -26 59 -50 107 -24 47
-44 99 -44 115 0 62 -124 218 -242 307 -21 16 -38 34 -38 41 0 37 -316 385
-578 638 -61 59 -116 107 -122 107 -17 0 -154 131 -171 164 -9 17 -35 42 -57
56 -51 32 -250 168 -325 223 -33 23 -63 50 -69 60 -5 9 -31 28 -57 42 -27 13
-61 35 -77 48 -33 27 -78 51 -150 78 -28 11 -59 31 -71 47 -21 29 -119 82
-150 82 -9 0 -37 9 -62 21 -25 11 -66 29 -91 40 -25 12 -72 38 -105 59 -44 29
-87 46 -160 63 -55 13 -114 31 -132 40 -18 9 -90 35 -160 57 -133 42 -225 75
-256 91 -18 10 -123 43 -237 74 -36 10 -81 26 -100 36 -47 23 -179 49 -249 49
-32 0 -100 13 -160 30 -57 17 -117 30 -134 30 -16 0 -68 9 -116 19 -204 46
-428 81 -513 81 -36 0 -85 7 -109 16 -30 11 -105 19 -234 25 -104 4 -262 13
-350 19 -149 10 -555 25 -1000 37 -170 4 -196 7 -245 28 -54 23 -65 24 -464
29 -245 4 -427 11 -453 18 -33 8 -63 8 -118 -1 -93 -15 -731 -7 -799 10 -46
11 -70 5 -110 -30 -55 -49 -52 -103 9 -141 20 -12 45 -40 56 -64 12 -22 34
-54 49 -71 24 -27 81 -129 125 -225 9 -19 55 -79 104 -133 53 -59 97 -118 110
-150 36 -83 82 -170 101 -192 22 -24 84 -140 95 -175 4 -14 24 -41 44 -60 20
-19 49 -62 65 -95 16 -33 38 -78 49 -100 11 -22 31 -62 45 -90 13 -27 33 -60
45 -72 11 -12 29 -46 41 -75 12 -29 47 -92 78 -139 31 -47 68 -108 83 -135 14
-27 46 -83 70 -124 25 -41 56 -95 70 -120 14 -25 36 -63 49 -85 12 -22 47 -85
76 -140 30 -55 69 -125 87 -155 18 -30 33 -60 33 -65 0 -25 125 -260 177 -331
31 -44 76 -117 101 -164 62 -120 173 -270 236 -319 21 -17 58 -56 81 -86 23
-30 57 -66 74 -81 18 -15 58 -61 90 -103 65 -85 173 -190 237 -231 23 -14 98
-82 166 -151 76 -77 146 -137 183 -159 33 -19 97 -69 143 -112 52 -49 106 -89
150 -110 37 -18 96 -54 132 -79 36 -26 108 -68 160 -94 52 -26 134 -72 181
-101 47 -30 122 -70 166 -88 45 -19 107 -52 140 -74 84 -57 169 -98 285 -136
57 -18 154 -57 216 -85 62 -28 145 -62 185 -76 40 -13 86 -31 103 -40 16 -8
33 -15 37 -15 5 0 83 -29 174 -65 110 -44 190 -69 241 -76 42 -6 106 -24 142
-39 36 -16 83 -31 105 -35 88 -13 284 -58 355 -80 41 -13 122 -33 180 -45 58
-11 149 -36 203 -55 133 -47 243 -65 406 -65 75 0 246 -9 381 -19 333 -25 363
-26 1020 -26 493 0 589 3 675 17 55 9 121 20 148 23 26 4 73 19 103 36 62 32
89 35 137 16 18 -8 48 -17 68 -21 37 -7 74 -39 104 -93 13 -21 39 -42 81 -63
71 -35 74 -38 98 -102 16 -42 17 -92 12 -583 -3 -295 -8 -539 -10 -544 -3 -4
-6 -188 -6 -407 l-1 -399 -31 -67 -31 -68 10 -237 c18 -437 6 -613 -41 -613
-9 0 -24 12 -33 27 -16 24 -18 53 -18 238 -1 206 -1 211 -29 285 -16 41 -37
99 -48 129 -11 30 -39 82 -62 115 -24 34 -54 81 -66 106 -12 25 -43 72 -67
105 -25 33 -53 75 -63 95 -20 38 -51 72 -150 165 -120 112 -184 161 -275 210
-49 27 -103 58 -120 71 -16 12 -61 39 -100 59 -38 21 -86 49 -105 64 -101 76
-281 166 -360 181 -111 20 -248 40 -271 40 -13 0 -37 7 -53 15 -15 8 -34 15
-42 15 -8 0 -55 13 -106 29 -78 25 -126 32 -303 45 -275 20 -415 22 -675 7
-286 -15 -327 -22 -435 -76 -49 -25 -95 -45 -101 -45 -6 0 -74 -25 -150 -56
-77 -30 -179 -64 -229 -74 -49 -10 -108 -28 -130 -40 -21 -11 -44 -20 -50 -20
-6 0 -44 -14 -85 -31 -69 -29 -140 -80 -140 -102 0 -5 17 -26 38 -47 30 -31
47 -39 92 -45 106 -13 196 -38 281 -76 48 -22 91 -39 96 -39 5 0 38 -30 74
-67 58 -59 101 -116 171 -221 9 -14 33 -44 53 -66 48 -54 96 -126 136 -206 18
-36 50 -88 71 -116 21 -28 38 -55 38 -59 0 -5 17 -35 38 -67 133 -210 192
-286 317 -413 39 -39 111 -115 160 -168 208 -225 358 -322 662 -433 l93 -34
277 -1 c153 0 321 4 373 10 87 11 137 21 395 80 50 11 128 34 175 51 47 16 92
30 101 30 21 0 130 53 184 90 70 46 110 60 172 59 98 -2 113 -9 155 -69 21
-30 45 -60 53 -66 8 -6 28 -28 45 -48 l29 -38 -5 -736 c-4 -698 -11 -1022 -34
-1837 -17 -579 -17 -577 -34 -624 -14 -37 -18 -133 -26 -620 -5 -317 -12 -625
-15 -686 -3 -60 -5 -261 -6 -445 -1 -396 -4 -413 -78 -441 -25 -9 -67 -38 -95
-66 -28 -28 -69 -63 -91 -78 -22 -16 -59 -48 -82 -71 -22 -23 -54 -45 -70 -48
-30 -8 -103 -54 -227 -142 -97 -69 -167 -90 -347 -103 -102 -8 -136 -14 -175
-34 -45 -23 -91 -38 -203 -67 -29 -8 -60 -27 -90 -56 -25 -25 -68 -55 -96 -68
-66 -31 -217 -182 -254 -254 -7 -15 -32 -47 -55 -72 -86 -95 -179 -214 -192
-246 -8 -18 -27 -48 -43 -66 -16 -18 -32 -49 -36 -68 -10 -49 -28 -81 -75
-135 -22 -25 -43 -58 -46 -73 -4 -15 -13 -39 -21 -54 l-14 -28 3103 0 c3046 0
3102 0 3072 19 -17 10 -43 31 -57 45 -15 15 -37 26 -54 26 -33 1 -128 38 -169
67 -31 21 -195 55 -360 73 -93 10 -155 27 -220 61 -21 10 -54 19 -74 19 -19 0
-82 9 -140 19 -92 16 -107 22 -130 48 -30 36 -70 58 -136 74 -32 8 -63 24 -89
49 -22 21 -73 52 -114 69 -40 17 -89 45 -108 61 -18 17 -38 30 -42 30 -5 0
-50 29 -100 65 -50 36 -111 74 -135 84 -24 11 -46 26 -49 36 -4 9 -30 27 -59
39 -29 13 -84 47 -122 75 -38 28 -86 56 -108 62 -21 5 -56 27 -78 47 -21 20
-64 50 -97 66 -32 17 -77 47 -100 68 -24 21 -47 38 -53 38 -6 0 -34 10 -61 21
-41 18 -57 33 -93 88 -58 88 -70 138 -58 228 11 79 2 148 -25 190 -15 23 -18
52 -19 183 -2 267 -23 929 -33 1065 -10 122 -16 670 -42 3975 -6 800 -15 1381
-21 1435 -12 101 -14 157 -29 645 -5 190 -12 372 -15 406 -8 85 8 138 50 163
62 38 80 31 180 -72 50 -52 102 -108 115 -126 27 -37 107 -98 169 -130 24 -12
60 -37 80 -55 52 -47 202 -126 240 -126 18 0 42 -10 59 -24 50 -42 133 -86
163 -86 16 0 47 -7 67 -15 84 -32 276 -66 567 -101 192 -22 233 -20 536 27
231 35 343 49 407 49 69 0 106 12 167 54 29 20 51 26 90 26 62 0 186 29 321
74 55 19 129 42 165 52 40 12 78 31 100 50 23 21 54 35 89 43 29 6 83 24 120
40 36 16 81 32 99 36 18 4 69 27 113 51 43 24 81 44 83 44 10 0 303 144 316
155 8 7 58 27 110 45 165 57 302 134 405 230 28 26 77 61 110 80 33 18 85 50
115 70 30 20 102 61 159 90 107 55 240 148 283 198 13 15 59 54 102 87 44 33
101 87 127 120 26 33 72 81 102 107 30 26 68 68 84 93 47 76 72 103 168 180
51 40 108 92 126 116 19 23 50 56 69 73 114 103 140 132 166 184 15 31 31 64
36 72 5 8 15 30 24 48 8 19 45 65 81 102 36 38 76 84 89 103 13 19 45 51 73
71 50 37 161 151 161 165 0 4 19 21 43 38 40 29 470 455 676 670 52 54 104
117 116 140 14 28 40 54 82 82 33 23 92 69 129 104 38 34 87 76 109 92 49 36
160 127 267 218 44 37 86 67 93 67 7 0 24 14 37 31 67 87 91 107 180 151 51
25 111 51 133 58 207 66 276 224 124 284 -50 20 -169 46 -210 46 -17 0 -49 11
-72 24 -23 13 -73 34 -112 46 -38 13 -104 39 -145 57 -41 19 -120 51 -174 70
-55 19 -122 46 -149 59 -102 52 -305 125 -441 159 -77 19 -168 43 -201 55
-103 34 -439 91 -720 121 -55 6 -142 19 -194 30 -148 30 -630 27 -988 -6 -147
-14 -322 -30 -388 -35 -66 -6 -126 -13 -133 -15 -6 -2 -81 -9 -165 -15 -83 -6
-206 -20 -272 -30 -66 -11 -178 -24 -250 -30 -71 -6 -164 -19 -205 -30 -41
-11 -143 -33 -227 -49 -244 -48 -518 -144 -713 -251 -58 -31 -195 -103 -305
-159 -110 -56 -231 -125 -269 -154 -38 -28 -86 -63 -107 -77 -44 -29 -167
-123 -255 -195 -33 -27 -112 -85 -175 -129 -83 -57 -153 -118 -259 -226 -80
-81 -172 -167 -205 -191 -123 -90 -436 -406 -476 -481 -24 -44 -156 -215 -239
-309 -69 -78 -100 -124 -146 -216 -65 -129 -129 -224 -238 -353 -104 -122
-153 -199 -213 -332 -47 -105 -66 -161 -135 -393 -24 -81 -74 -185 -88 -185
-29 0 -27 -99 -45 2550 -3 415 -10 956 -16 1202 -6 246 -8 455 -5 465 4 13 -8
650 -15 799 -2 33 30 92 68 127 19 18 46 57 60 88 41 95 86 97 188 9 37 -33
89 -70 114 -81 25 -12 60 -32 76 -44 17 -12 41 -26 55 -30 14 -4 66 -25 116
-46 184 -78 206 -81 524 -84 157 -2 409 -8 560 -13 360 -13 621 1 750 38 19 5
78 10 130 10 56 0 133 8 190 20 52 11 129 25 170 30 254 32 321 41 427 60 107
20 307 87 368 124 11 7 40 18 65 25 53 15 116 48 182 94 25 17 71 47 101 65
47 28 131 109 197 187 8 9 55 49 104 89 52 41 110 99 137 136 27 36 88 111
136 168 69 80 103 133 158 240 39 75 82 155 96 177 64 102 204 460 219 558 16
107 156 459 233 585 56 93 144 276 176 367 17 46 39 102 51 124 11 22 20 44
20 49 0 27 100 185 149 237 32 33 78 87 103 120 24 33 71 87 104 120 33 33 86
95 118 137 59 79 144 156 206 188 69 35 102 117 63 153 -10 8 -40 25 -66 36
-26 11 -62 32 -80 45 -18 13 -61 38 -97 56 -36 18 -74 37 -85 43 -11 6 -42 23
-70 38 -71 39 -334 124 -440 144 -49 9 -155 22 -235 30 -161 15 -188 19 -310
47 -174 41 -527 49 -855 19 -60 -6 -186 -17 -280 -26 -324 -30 -403 -34 -437
-25 -61 18 -249 -29 -423 -105 -71 -31 -167 -70 -213 -85 -46 -16 -115 -44
-155 -64 -40 -19 -91 -40 -114 -46 -61 -15 -160 -61 -235 -109 -36 -23 -71
-41 -79 -41 -29 0 -168 -68 -250 -121 -46 -31 -145 -113 -219 -183 -74 -71
-205 -180 -290 -243 -333 -248 -712 -684 -863 -993 -15 -30 -59 -95 -98 -144
-39 -49 -95 -130 -124 -180 -29 -50 -74 -122 -99 -159 -25 -37 -61 -100 -80
-140 -42 -89 -126 -339 -126 -375 0 -46 -58 -426 -69 -454 -23 -61 -44 -25
-61 102 -24 181 -42 2276 -21 2455 7 58 6 98 -4 150 -16 82 -24 1651 -11 2115
5 173 4 320 -2 397 -10 109 -9 130 8 190 17 63 24 73 98 143 82 78 102 107
133 198 10 29 33 70 50 90 18 20 45 66 61 102 17 36 43 92 59 125 53 111 54
123 52 615 -2 461 -3 483 -43 593 -11 32 -27 104 -35 160 -36 255 -47 311 -86
428 -22 68 -51 166 -64 217 -13 51 -33 109 -44 130 -11 20 -40 84 -64 142 -25
58 -61 129 -81 159 -20 29 -36 57 -36 62 0 17 -104 184 -140 223 -20 23 -56
70 -80 105 -56 84 -126 158 -170 181 -19 10 -46 30 -60 45 -14 15 -50 44 -80
63 -30 19 -105 83 -166 141 -142 135 -211 194 -249 214 -17 8 -51 35 -76 59
-142 137 -251 234 -281 248 -36 19 -222 190 -301 278 -7 7 -48 48 -92 90 -44
42 -87 86 -95 98 -8 11 -25 27 -37 35 -13 9 -36 34 -53 57 -30 41 -83 72 -124
72 -11 0 -35 -9 -53 -20z"/>
<path d="M20085 16540 c-179 -14 -469 -39 -510 -45 -22 -2 -175 -9 -340 -15
-327 -11 -644 -30 -1025 -60 -135 -11 -463 -33 -730 -50 -530 -33 -796 -60
-911 -89 -96 -25 -249 -47 -424 -61 -333 -26 -397 -32 -530 -51 -77 -11 -250
-46 -385 -79 -135 -32 -369 -86 -520 -119 -151 -33 -390 -85 -530 -116 -140
-31 -388 -83 -550 -116 -162 -33 -322 -67 -355 -75 -162 -41 -468 -140 -530
-172 -74 -37 -332 -151 -525 -232 -63 -26 -162 -71 -220 -98 -58 -28 -167 -71
-244 -97 -320 -105 -545 -256 -893 -598 -146 -144 -169 -171 -231 -276 -38
-64 -74 -126 -80 -137 -14 -27 -47 -241 -61 -394 -34 -371 -54 -981 -49 -1495
l4 -400 57 -223 c31 -122 66 -244 78 -272 26 -59 60 -92 246 -233 78 -59 154
-122 168 -139 30 -35 99 -179 115 -238 6 -21 19 -85 30 -142 11 -56 27 -132
35 -168 8 -36 19 -126 25 -200 19 -271 30 -387 46 -464 23 -110 32 -296 43
-886 12 -592 27 -942 45 -1050 7 -41 25 -113 38 -160 35 -117 46 -237 53 -570
7 -326 20 -513 40 -585 27 -98 54 -422 90 -1080 40 -743 118 -1730 180 -2290
21 -192 52 -556 71 -840 16 -253 50 -583 79 -775 19 -130 33 -304 45 -570 7
-138 18 -268 30 -335 22 -116 54 -351 65 -472 l7 -73 10919 0 c6667 0 10919 4
10919 9 0 5 -18 42 -40 83 -21 40 -51 104 -65 141 -14 38 -36 90 -50 117 -32
62 -96 223 -151 376 -68 193 -183 413 -301 578 -35 48 -84 127 -109 175 -26
47 -98 177 -160 287 -169 301 -195 374 -214 619 -11 152 -25 269 -41 355 -17
91 -99 360 -131 430 -17 36 -40 92 -53 125 -56 142 -157 349 -230 470 -145
242 -502 762 -741 1080 -291 389 -1015 1030 -1473 1306 -113 68 -158 85 -376
144 -81 23 -173 57 -245 92 l-115 55 -210 213 c-231 233 -371 363 -635 590
-254 218 -338 284 -762 602 -211 157 -439 331 -508 385 l-125 98 7 238 c27
907 51 1301 98 1572 15 90 39 444 50 760 6 162 15 416 20 564 5 148 10 269 12
270 21 13 187 153 231 195 79 76 115 129 128 193 6 29 33 98 59 153 34 70 53
123 61 175 16 103 25 1676 10 1924 -12 207 -36 319 -99 468 -22 51 -43 104
-47 118 -25 84 -169 293 -263 381 -109 102 -129 114 -432 279 -452 245 -553
294 -685 340 -44 15 -134 46 -200 69 -263 91 -577 172 -775 201 -266 38 -1072
139 -1310 164 -596 63 -1303 108 -2135 136 -392 13 -1652 21 -1780 10z"/>
<path d="M41625 14940 c-60 -25 -166 -151 -214 -255 -21 -44 -85 -168 -143
-276 -147 -270 -162 -308 -162 -394 0 -52 5 -80 21 -110 77 -146 117 -427 74
-521 -39 -87 -279 -428 -650 -924 -277 -371 -301 -408 -301 -465 0 -61 39
-114 186 -250 167 -155 303 -290 339 -338 27 -37 28 -41 17 -83 -7 -25 -34
-93 -61 -152 -86 -188 -131 -332 -232 -742 -17 -69 -44 -163 -60 -210 -17 -47
-39 -116 -50 -154 -11 -38 -43 -119 -70 -180 -144 -317 -146 -323 -107 -408
35 -73 140 -218 200 -274 l50 -47 117 6 c132 7 262 34 353 73 35 15 117 44
183 66 458 148 604 197 710 236 66 24 194 65 285 92 91 26 246 77 345 113 99
36 242 88 318 116 75 28 165 55 200 62 34 6 91 19 127 29 36 10 90 24 120 31
63 14 130 41 315 126 143 66 191 85 340 133 55 18 164 61 242 96 167 76 247
98 306 89 54 -9 111 -39 131 -67 37 -52 11 -163 -79 -336 -77 -147 -156 -252
-270 -357 -713 -658 -1714 -1556 -2290 -2055 -346 -301 -432 -376 -567 -500
-63 -58 -210 -185 -326 -283 -267 -224 -403 -350 -663 -613 -254 -257 -326
-335 -539 -589 -168 -199 -220 -259 -421 -477 -58 -63 -161 -182 -230 -264
-207 -248 -639 -740 -1033 -1174 -272 -301 -343 -399 -407 -564 -124 -322
-158 -730 -219 -2646 -5 -179 -13 -364 -16 -412 l-6 -88 27624 0 27623 1 121
132 c261 284 570 650 654 773 52 76 62 116 53 201 -4 37 -6 88 -5 113 0 25 -8
88 -18 140 -11 52 -24 149 -29 215 -13 146 -21 176 -77 280 -24 45 -44 93 -44
106 0 49 -112 197 -310 409 -335 360 -680 759 -1075 1245 -252 309 -652 753
-1136 1260 -251 263 -369 376 -669 641 -80 70 -194 174 -255 229 -159 146
-421 376 -640 560 -567 476 -1188 1028 -1650 1465 -71 68 -247 229 -390 358
-294 267 -492 460 -524 512 -11 19 -21 45 -21 56 0 12 -25 72 -57 133 -48 95
-56 119 -57 169 -1 40 5 67 17 85 16 25 22 27 88 27 174 0 406 -51 501 -111
160 -100 333 -176 449 -197 31 -6 105 -33 165 -60 60 -27 133 -55 163 -61 30
-6 95 -30 145 -53 50 -22 255 -96 456 -163 201 -67 420 -142 487 -168 172 -64
410 -136 505 -153 44 -8 107 -26 141 -40 134 -57 195 -76 277 -88 47 -7 114
-26 150 -41 148 -62 217 -78 345 -79 111 -1 124 1 180 27 96 45 325 291 325
349 0 11 -22 61 -49 111 -30 55 -64 140 -85 212 -42 143 -55 179 -94 266 -17
36 -35 94 -42 130 -22 127 -41 193 -79 278 -21 47 -46 123 -54 169 -9 45 -32
118 -51 161 -49 108 -64 153 -76 225 -6 38 -26 95 -56 153 -37 72 -45 97 -40
120 5 19 85 106 243 263 130 129 254 258 276 287 35 47 38 56 29 82 -14 39
-64 117 -164 254 -45 62 -97 141 -114 177 -18 36 -59 94 -91 130 -101 115
-139 162 -211 271 -73 110 -137 190 -258 323 -110 120 -118 142 -122 316 -5
206 13 357 62 528 12 43 13 64 5 104 -28 130 -183 440 -279 559 -13 15 -24 50
-30 89 -11 79 -45 124 -121 163 -90 45 -141 46 -272 4 -62 -20 -159 -50 -217
-67 -58 -17 -231 -71 -385 -120 -154 -49 -329 -104 -390 -123 -60 -19 -150
-49 -200 -67 -49 -17 -137 -43 -195 -57 -103 -25 -282 -92 -370 -138 -25 -14
-70 -34 -100 -45 -30 -12 -149 -68 -265 -124 -115 -57 -248 -122 -295 -144
-47 -23 -151 -79 -232 -124 -81 -46 -186 -104 -235 -131 -251 -135 -332 -191
-543 -372 -262 -224 -580 -543 -772 -774 -44 -53 -135 -180 -204 -283 -111
-169 -127 -188 -151 -188 -114 0 -770 71 -793 85 -12 7 -187 35 -315 50 -183
21 -584 47 -598 38 -90 -53 -752 -568 -897 -698 -41 -37 -94 -76 -116 -86 -55
-25 -160 -101 -311 -225 -232 -190 -475 -353 -703 -469 -174 -88 -257 -119
-443 -166 -89 -22 -288 -80 -442 -129 -405 -127 -545 -169 -590 -176 -22 -3
-111 -23 -198 -45 -158 -39 -357 -79 -517 -104 -249 -38 -313 -51 -515 -100
-121 -30 -292 -75 -380 -100 -88 -25 -212 -54 -275 -66 -194 -35 -400 -89
-610 -159 -63 -22 -162 -49 -220 -60 -58 -12 -157 -36 -221 -55 -64 -18 -149
-40 -190 -49 -152 -32 -245 -54 -274 -66 -75 -31 -469 -161 -545 -180 -47 -12
-135 -46 -196 -76 -62 -30 -116 -54 -121 -54 -6 0 -73 -30 -149 -67 -76 -37
-197 -86 -269 -109 -71 -23 -184 -63 -250 -89 -66 -26 -163 -60 -215 -75 -52
-15 -185 -59 -295 -97 -110 -39 -270 -94 -355 -123 -85 -29 -189 -68 -230 -86
-41 -19 -118 -44 -170 -57 -52 -13 -161 -52 -241 -85 -81 -34 -234 -95 -340
-135 -291 -111 -434 -172 -622 -264 -326 -160 -478 -264 -695 -476 -195 -189
-198 -190 -425 -185 -155 3 -176 5 -207 24 -48 30 -144 49 -360 74 -102 11
-255 31 -340 45 -199 30 -411 61 -525 76 -49 6 -129 19 -177 30 -48 10 -133
26 -190 34 -114 17 -347 62 -533 102 -66 14 -155 32 -197 39 -233 39 -618 128
-669 154 -32 17 -39 29 -39 66 0 57 50 87 270 159 196 65 268 96 323 138 29
22 67 40 100 47 44 9 72 25 146 84 207 165 630 582 739 726 23 31 57 89 77
130 20 41 47 93 60 115 33 53 35 145 5 175 -33 33 -109 26 -257 -21 -162 -51
-239 -67 -377 -79 -125 -10 -186 -28 -266 -77 -41 -24 -80 -37 -144 -49 -78
-13 -169 -43 -401 -128 -89 -33 -164 -35 -191 -5 -18 20 -19 40 -19 298 l0
276 -28 43 c-16 24 -44 85 -63 135 -65 171 -196 389 -278 465 -38 35 -52 42
-88 42 -37 0 -47 -6 -88 -48 -135 -140 -442 -833 -506 -1142 -22 -109 -23
-257 -1 -330 9 -30 24 -80 33 -111 42 -142 -26 -203 -200 -177 -120 17 -153 3
-277 -121 -132 -133 -190 -222 -204 -315 -10 -62 -52 -118 -127 -167 -88 -56
-169 -78 -333 -90 -77 -5 -194 -21 -260 -35 -291 -60 -372 -74 -565 -98 -224
-28 -239 -32 -385 -81 -55 -18 -138 -38 -185 -44 -47 -6 -123 -16 -170 -22
-47 -6 -164 -26 -260 -45 -96 -19 -226 -39 -289 -44 -151 -13 -314 -42 -513
-90 -90 -22 -291 -62 -448 -89 -157 -27 -400 -72 -540 -100 -140 -27 -346 -66
-458 -86 -241 -42 -344 -64 -489 -106 -130 -37 -230 -42 -283 -14 -123 63
-198 168 -510 710 -275 477 -424 693 -618 896 -271 283 -559 465 -1122 708
-102 44 -221 95 -265 115 -45 20 -117 43 -160 52 -48 10 -130 39 -205 74 -69
31 -188 81 -265 110 -77 29 -176 70 -221 90 -44 20 -130 52 -190 69 -60 18
-134 41 -164 52 -30 11 -122 45 -205 75 -82 30 -199 75 -260 100 -119 49 -265
104 -440 165 -60 21 -153 54 -205 74 -52 20 -138 52 -190 71 -52 20 -180 69
-285 111 -104 41 -251 99 -325 128 -134 53 -327 108 -490 140 -47 9 -146 37
-220 61 -74 24 -182 53 -239 64 -57 12 -120 28 -140 37 -81 34 -208 73 -324
99 -67 14 -171 42 -231 60 -60 19 -204 57 -320 85 -116 28 -420 102 -676 165
-256 62 -537 127 -625 144 -88 17 -200 40 -250 50 -49 11 -106 20 -125 20 -52
0 -186 34 -276 71 -105 42 -348 111 -547 154 -426 93 -513 119 -702 209 -211
101 -424 240 -795 520 -124 94 -344 259 -489 368 -144 109 -315 242 -380 296
-157 131 -179 147 -261 186 -146 70 -259 71 -785 6 -519 -63 -692 -89 -804
-116 -100 -25 -105 -25 -147 -9 -44 17 -161 125 -180 167 -6 12 -21 46 -34 73
-43 97 -232 347 -413 547 -177 195 -675 593 -998 796 -214 135 -757 405 -1129
562 -107 45 -299 126 -425 180 -127 54 -271 110 -320 125 -50 15 -250 80 -445
145 -367 123 -740 230 -794 229 -17 0 -40 -4 -51 -9z"/>
</g>
</svg>
