<svg xmlns="http://www.w3.org/2000/svg" version="1.0" viewBox="0 0 25833 6458"><path d="M17155.7 1721.6c-.1.1-4.2.5-9.2.8-4.9.4-11 .8-13.5 1.1-2.5.2-8.3.7-13 1-7.2.6-15 1.8-24.7 3.9-6.4 1.4-18.3 5.2-29.8 9.5-45 16.9-83.7 37.2-132 69-3.8 2.5-8.8 5.9-11.1 7.6-2.2 1.6-7.8 5.7-12.3 9-4.5 3.3-9.9 7.3-12 9-2.1 1.6-5.5 4.3-7.7 6-6.9 5.4-16.8 13.8-25.9 22-8.4 7.6-28.5 24.5-38.6 32.5-8.2 6.4-29.4 28.4-42.9 44.5-22.4 26.6-39.2 49.9-53.1 73.5-40.4 68.9-71.6 152.7-91.3 245-6.4 30.2-12.8 71.8-17.1 111.5-1.9 18.1-3.3 27-8.5 57-2.2 12.6-6.3 39.4-9.1 59.5-5.3 38.7-19.2 129-23.4 152.5-11.8 66.3-14.9 81.5-24.7 119.5-6 23.7-22.4 74.5-33.8 105-19.1 51.2-40.2 93.1-80.2 159.5-18.7 31.1-41.1 65.4-43.8 67-.5.3-3.5-.7-6.7-2.3-7.9-4-22.8-9.5-34.3-12.7-5.2-1.4-14.4-4.1-20.5-5.9-6-1.9-12.3-3.8-14-4.2-1.6-.4-3.4-.8-4-1-33.9-8.7-73.4-11.2-111-6.9-19.8 2.3-50.7 10.3-77.2 19.9-13.3 4.9-46.2 22.1-60.1 31.5-4.6 3.1-9.3 6.3-10.6 7.1-22 14.9-55.3 46.9-73.1 70.4-19.5 25.7-23.6 31.9-34.1 52.1-16.5 31.9-28.5 65.1-35 97.3-.6 3-.9 2.9-22.3-7.5-27.4-13.2-69.3-40.3-89.1-57.4-6.7-5.9-7-6-13-10.9-3.1-2.5-7.1-5.9-9-7.6-1.9-1.7-6.2-5.5-9.5-8.4-16-14.1-25.5-23.1-43.5-41-10.7-10.7-21.7-22-24.4-25-4.2-4.7-26.7-28.9-31.7-34.1-3.1-3.2-20.5-22.5-26.4-29.4-7.6-8.7-17.7-20.5-23.2-27-2.3-2.8-5-6-6-7.1-1-1.2-2.9-3.6-4.3-5.5-4.4-5.8-34.4-42.4-35.6-43.4-.7-.6-2.9-3-4.9-5.5-4.2-5-11.1-13-23.1-26.4-4.4-5-12.2-14.1-17.4-20.1-5.1-6.1-9.6-11.2-9.9-11.5-.3-.3-3.1-3.4-6-7-3-3.6-6-7-6.6-7.5-1.2-1.1-15.2-17.5-20.5-24-7.4-9.1-18.4-22-19.5-23-1.4-1.3-16-19-24.3-29.8-13.1-16.8-23.4-30.9-36.7-50.2-2.7-3.9-6.3-9-8-11.5-13.9-19.9-38.1-65.7-46.9-88.5-1.5-3.9-3.4-8.6-4.1-10.5-5.1-12.5-10.6-28.7-10.2-30 .3-.8 1.9-6 3.7-11.5 13.1-41.6 17.8-75 20-141.5 2.2-68-2.4-127.3-17-219.1-10.5-66.4-20.9-108-39.5-158.4-18.9-51.2-35.8-85.5-59.6-121.2-20.7-31.1-53.2-66.8-80.9-88.7-5.7-4.5-17-12.6-17.5-12.6-.2 0-2.4-1.4-4.9-3-2.4-1.7-8.2-4.9-12.8-7.2-4.6-2.2-11.5-6.5-15.3-9.4-7.8-5.9-17.2-10.5-25.4-12.4-5.2-1.2-20.9-.9-27.1.5-1.4.3-3.8.7-5.5 1-1.6.2-4.1.7-5.5 1-1.4.3-3.9.7-5.7 1-1.8.2-5.8.8-9 1.4-3.2.5-7.4 1.2-9.5 1.5-6.4 1-19 5.5-26.8 9.7-4.1 2.3-7.7 4.4-8 4.8-.3.4-2.9 2.1-5.7 3.9-2.9 1.7-6.1 4-7.1 4.9-1 1-3.5 3.1-5.6 4.8-4.4 3.6-5.5 4.5-17.7 15.5-16 14.4-31.8 30.1-39.3 39-27.8 33-52.7 82.8-74.6 149-14.4 43.7-22.4 92.8-24.5 150-.4 9.6-.8 20-1 23-.8 11.2-.5 34.7.4 41.5.6 3.8 1 10.3 1.1 14.3 0 4 .4 11.5 1 16.5.5 5.1 1.4 14.4 2.1 20.7 2.9 29.9 10.9 85.5 16.9 117.3.6 3.3.9 6.1.7 6.3-.3.3 0 2.2.5 4.2s1.3 5.7 1.8 8.2c.8 4.8 4.6 22.8 8.5 40.5 1.4 6 4.3 18 6.5 26.5 8 31.2 7.5 27.2 5.6 42.7-3 24.5-4.7 55.7-4.1 73.3 1.5 43.7 3.3 67.1 8.5 111 1.6 13.5 3.4 30.8 4 38.5 4.4 56.7 7.7 84.4 13.2 112 3.8 19.3 15.2 66.5 20.3 84 .8 2.7 2.8 9.9 4.6 16 1.7 6 6.3 21.3 10.1 34 3.8 12.6 7.8 26.1 8.9 30 5.5 18.8 12 38 18.5 54.5 2.9 7.4 6.4 16.5 7.7 20.1 3.9 10.4 15.8 33.5 25.2 49.1 13.4 21.9 11.8 19 25.5 46.8 4.5 9.1 11.3 22.3 15 29.5 3.7 7.1 10 19.3 14 27 11.6 22.4 18.1 34.6 21.3 40 1.6 2.7 3.8 6.3 4.7 8 .9 1.6 9.5 15.8 19 31.5s18.1 29.8 19 31.5c9.9 16.8 16 27.9 17 30.9.6 2 1.5 3.6 2 3.6s1.1 1.3 1.5 2.9c.3 1.6 1.3 3.5 2 4.1.8.7 1.7 2.7 2.1 4.6.3 1.9 1 3.4 1.5 3.4s.9.7.9 1.5.5 1.5 1 1.5c.6 0 1 .7 1 1.5 0 .9.9 2.5 2 3.7 1.1 1.2 2 3 2 4s.4 1.8 1 1.8c.5 0 2.1 2.4 3.5 5.2 4.1 8.4 5.8 11.2 7 12.3.7.5 1.9 2.5 2.6 4.2.8 1.8 1.7 3.3 2.1 3.3.5 0 .8.5.8 1.1 0 .5 1.8 3.7 4 6.9s4 6.6 4 7.4c0 .9.6 1.6 1.3 1.6.7 0 2 1.6 2.7 3.6.8 2 2.1 4.1 3 4.8 2.1 1.5 5 6.2 5 7.9 0 .8 1.1 2.2 2.4 3 1.2.9 3.1 3.2 4 5.1.9 2 2.1 3.6 2.6 3.6.6 0 1 .6 1 1.3 0 .7.9 1.8 2 2.5s2 2.3 2 3.7c0 1.8.7 2.8 2.4 3.5 1.5.5 2.7 2 3.1 3.9.4 1.7 1.3 3.1 2 3.1s1.5.7 1.9 1.5c1.1 3 24.1 37 33.3 49.4 7.3 9.8 25.1 35.8 53.8 78.6 29.5 44.2 28.1 42 50.4 73 15.4 21.5 33.7 45.9 47.3 63.5 3.2 4.1 8.9 11.5 12.7 16.5 3.8 4.9 10.4 13.5 14.6 19 4.2 5.5 16.3 21.5 26.9 35.5 26.8 35.6 46.9 61.5 51.4 66.5 1.6 1.6 6.3 7.5 10.6 13s8.4 10.4 9 11c1.1.9 9.9 11.5 35.2 42.5 6.1 7.4 14.9 18.4 19.6 24.5 4.7 6 9.6 12.1 11 13.5 1.4 1.4 6 7 10.3 12.5 4.4 5.5 8.4 10.4 9.1 11 .6.5 6.9 8 13.9 16.5s13.1 15.7 13.4 16c.3.3 3.1 3.4 6.1 7 2.9 3.6 6.1 7.2 7 8 .9.8 4.1 4.4 7 8 3 3.6 5.8 6.7 6.1 7 .3.3 3 3.4 5.9 7 6.9 8.4 12.1 14.2 23.9 26.5 5.3 5.5 13.4 14.2 18.1 19.4 4.7 5.2 9.8 10.8 11.4 12.5 5 5.4 19 22.9 23.4 29.3 8.1 11.8 15.7 30.6 20.2 49.9 1.8 7.8 5 30.5 5 35.8v2.6h-1924.4c-1718.4 0-1925.3.2-1933.1 1.5-21.5 3.8-38.8 12.7-54 28-12.9 12.9-21.4 27.5-26.4 45.4l-2.6 9.6v418l2.6 9.6c5 17.9 13.5 32.5 26.4 45.4 15.2 15.3 32.5 24.2 54 28 7.7 1.3 45.3 1.5 315.1 1.5h306.4v206h-306.4c-269.8 0-307.4.2-315.1 1.5-21.5 3.8-38.8 12.7-54 28-12.9 12.9-21.4 27.5-26.4 45.4l-2.6 9.6v418l2.6 9.6c5 17.9 13.5 32.5 26.4 45.4 15.2 15.3 32.5 24.2 54 28 7.7 1.3 45.3 1.5 315.1 1.5h306.4v521h-381.4c-336.9 0-382.4.2-390.1 1.5-21.5 3.8-38.8 12.7-54 28-13 12.9-21.5 27.7-26.3 45.4-2.4 9.1-2.6 11.3-3 39.3l-.4 29.8h8850.4l-.4-29.8c-.4-28-.6-30.2-3-39.3-4.8-17.7-13.3-32.5-26.3-45.4-15.2-15.3-32.5-24.2-54-28-7.8-1.3-59-1.5-445.6-1.5H19543v-521h326.4c287.7 0 327.4-.2 335.1-1.5 21.5-3.8 38.8-12.7 54-28 12.9-12.9 21.4-27.5 26.4-45.4l2.6-9.6v-418l-2.6-9.6c-5-17.9-13.5-32.5-26.4-45.4-15.2-15.3-32.5-24.2-54-28-7.7-1.3-47.4-1.5-335.1-1.5H19543v-206h326.4c287.7 0 327.4-.2 335.1-1.5 21.5-3.8 38.8-12.7 54-28 12.9-12.9 21.4-27.5 26.4-45.4l2.6-9.6v-418l-2.6-9.6c-5-17.9-13.5-32.5-26.4-45.4-15.2-15.3-32.5-24.2-54-28-7.8-1.3-121.3-1.5-1041.1-1.5-567.8 0-1032.4-.2-1032.4-.4s4.1-9.6 9.1-20.8c29.6-65.8 41.2-101.3 72.8-222.3 12.3-47.1 16.8-69 25.2-123.5 2.7-17.9 6.1-39.1 7.4-47.2 3-17.6 6.9-49.6 8.6-70.8 1.5-18.9 1.6-41.2.1-125.5-1.2-75.1-2.4-89.9-11.2-140-3-16.9-3.2-17.9-9.5-46-6.2-27.3-21.4-84-26-97-.7-2.2-2.8-8.1-4.6-13-3-8.5-7.3-19.3-10.3-26-.8-1.7-2.3-5-3.4-7.5-7.6-16.9-22.3-48.1-33.8-71.5-5.8-11.8-15.5-29.6-19.8-36.5-4-6.3-10.8-16.4-12.8-19-1-1.4-6.2-8.4-11.5-15.5-5.2-7.2-10.2-13.7-10.9-14.5-.8-.8-6-7.1-11.6-14-11.2-13.7-35-38-46.8-47.7-16.8-13.7-28.7-23.6-31.6-26.1-1.7-1.5-5.2-4.3-7.8-6.2-2.6-1.9-7.3-5.5-10.4-7.8-3.1-2.4-9.3-6.5-13.7-9.1-8.7-5.2-33.9-17.7-38.3-19.1-1.5-.5-5.2-1.8-8.2-3-3-1.2-7.1-2.6-9-3.2-1.9-.5-3.9-1.4-4.5-1.8-.5-.4-2.1-1-3.5-1.3-1.4-.3-5.9-1.5-10-2.7-4.1-1.2-8.2-2.3-9-2.5-3.2-.9-19.6-4.6-22.5-5-1.6-.3-5.6-1-8.8-1.6-3.2-.5-7.2-1.2-9-1.4-5.6-.6-14.1-1.6-17.2-2-1.6-.2-5.7-.6-9-.9-3.3-.3-7.6-.8-9.5-1.1-1.9-.3-5.3-.7-7.5-1-2.2-.3-9.2-1.2-15.5-2-29.7-3.8-65.4-4-98.5-.5-10.5 1.1-15.4 1.6-24.5 2.5-3 .3-6.6.8-8 1-2.4.4-16 2.2-22 3-1.6.2-3.2 0-3.5-.5-.3-.5 4.6-8.6 10.8-18.2 44.5-67.8 73-127.5 104.5-218.8 8.2-23.6 16-49.3 20.8-68 11.1-43.4 21.4-105.7 27.3-165 4.1-40.1 4.6-51.9 4.6-99.5-.1-48.2-1.4-72.3-6.1-112-5.2-44.1-15.4-98.6-23.9-127.5-.7-2.5-2.3-8.1-3.5-12.5-10-36.3-19.3-63.6-33.8-100-5.5-13.8-13.4-33.6-17.6-44.1-4.2-10.5-8.8-21.8-10.2-25-1.5-3.2-5.9-14-9.9-23.9-13-32.4-31.3-67.3-52.7-100.8-1.5-2.3-4.3-6.9-6.3-10.2-4.4-7.4-11.9-19-29.4-45.4-11.7-17.6-16.9-25.2-24.1-35.6-.8-1.2-2.4-3.5-3.4-5.1-1.1-1.6-2.4-3.4-3-3.9-.6-.6-2.3-2.8-3.9-5.1-1.5-2.2-4.8-6.3-7.2-9-2.4-2.7-4.4-5.2-4.5-5.6 0-.3-1.9-3-4.3-6-2.3-2.9-5.6-7.3-7.2-9.6-2.9-4.4-14.5-20.2-18.7-25.6-12.5-16.1-38.6-42-57.6-57.1-.7-.5-2.1-1.7-3-2.6-.9-.9-7.1-5.7-13.7-10.7-6.6-5.1-13.8-10.7-16-12.5-5.1-4.2-19.9-14.3-27.5-18.7-1.9-1.1-5.7-3.4-8.5-5-18.3-11-57.6-27.9-83.5-36.1-5.2-1.7-10.4-3.4-11.5-3.9-9.7-4.4-50.6-12.3-80-15.4-9-1-81.1-2.7-81.8-2zM14710 5007.2c1.5 9.7 4.5 22.1 7.1 28.7 3.2 8.6 13.2 27.5 21.4 40.6 4.1 6.6 7.8 12.7 8.2 13.5.6 1.4 7.2 10.3 24.6 33.5 8.9 11.7 20.6 29.5 31.2 47 5.5 9.1 17.5 32.7 17.5 34.4 0 .8-266.1 1.1-1005 1.1h-1005v-206h1898.8l1.2 7.2zm791.5 2.5c4.3 10.8 12.9 32.8 14.9 38.3 18.9 50.1 32.4 90.7 38 114 1.3 5.6 2.6 15.3 5.2 38.8l.5 5.2-254.2-.2-254.2-.3-6.4-22.5c-16.1-57.2-26.1-86.5-41.1-120.5-8-18.1-25.6-53.2-29.2-58-.4-.6-1-1.8-1.3-2.8-.6-1.6 12.3-1.7 261.6-1.7h262.3l3.9 9.7zm1586.1-8.9c.6.4 3.7 3.8 6.9 7.7 9.1 11.2 31.1 33.2 47 47 3.1 2.7 6.6 5.8 7.7 6.8 3.3 3.1 14 11.9 20.3 16.8 14.2 11 35.2 22.6 54 29.9 6.1 2.4 12.4 4.8 14 5.5 5.1 2.2 24.6 8.5 26.1 8.5.8 0 2.2.4 3.2 1 .9.5 3.7 1.4 6.2 1.9s8.3 1.9 13 3.1c28.1 7 32.6 7.5 76.5 7.5 40.9 0 47.7-.5 75.5-5.6 21.4-3.9 30.7-6.6 48.7-14 8.1-3.3 22-9 30.8-12.5 27.5-11.2 43.7-20.4 77.8-44.4 9.9-6.9 24-16.7 31.5-21.9 28.5-19.5 52.2-36.3 52.7-37.2.4-.5 295.6-.9 784.1-.9h783.4v206h-2674.7l4.7-20.3c2.6-11.1 6.6-28.5 9-38.7 5.2-22.7 19.3-78.6 26.4-105 2.9-10.7 6.6-24.6 8.2-30.8l2.9-11.2h231.5c127.3 0 232 .4 232.6.8zm-2246.2 793.4c.2.7 1.6 6.5 3.1 12.8 1.4 6.3 5.7 23.2 9.5 37.6 6 22.4 9.3 32.7 20 63.1 5.1 14.5 17.6 38.5 30.8 59.3 17 26.7 30.1 42.6 50 61 5.7 5.2 11 10.1 11.7 10.7.8.7 1.7 1.3 2.1 1.3.4 0 2.5 1.5 4.8 3.3 13.6 11.1 37.6 25.9 58.6 36 16.5 8.1 20.8 9.8 36.5 14.7 2.5.7 14.7 3.7 23.1 5.5 2.7.6 15.4 2.4 21.9 3.2 10.1 1.2 29.3.7 36.5-.9 1.7-.4 1.7-.2-.4 11.6-.9 4.9-1.6 10.5-1.6 12.6 0 4 .8 3.1-14.6 15.5-2 1.6-5.5 4.5-7.8 6.3-2.3 1.8-4.8 3.9-5.6 4.5-.8.7-3 2.3-4.8 3.6-1.9 1.3-4.5 3.4-5.9 4.7-1.4 1.3-2.9 2.4-3.4 2.4-.4 0-1.5.8-2.5 1.7-1.7 1.7-4.1 3.4-15 10.7-3.3 2.2-6.1 4.2-6.4 4.6-.3.4-2.5 2-5 3.5s-4.7 3.1-5 3.5c-.5.7-8.3 5.9-18.4 12.4-3.4 2.1-6.3 4.2-6.6 4.5-.3.4-3.4 2.5-7 4.6-3.6 2.1-6.7 4.2-7 4.5-.3.3-4.1 2.8-8.5 5.4-4.4 2.7-8.2 5.2-8.5 5.6-1.8 2.9-54.6 30.2-78 40.3-7.4 3.3-16.4 7.2-20 8.8-6.8 3-20.5 8.6-32.5 13.4-3.8 1.5-10.1 4-14 5.5-11.3 4.5-15.3 6-27.5 10-6.3 2.1-13.3 4.5-15.5 5.3-2.2.8-7.7 2.6-12.1 4.1l-8.1 2.6H12810v-521h1015.5c811.6 0 1015.6.3 1015.9 1.2zm4405.6 259.3V6314h-2635.7l-.6-14.3c-.4-7.8-.7-21.2-.7-29.7 0-14.5-.4-25.7-3-82-.6-12.4-1.4-34.2-2-48.5-1.5-40.8-4.9-114.5-6-131.5-2.1-31.5-3-45.7-3.5-53.5-.9-14.8-2.5-38.9-3.5-52.5-.6-7.4-2-25.9-3.1-41-1.1-15.1-2.4-32.7-2.9-39-.6-6.3-1.3-15.4-1.6-20.3l-.7-8.7H19247v260.5zM22744.3 3753c-4.9 3-8.7 9.4-8.8 14.9-.1 2.5-.8 8.2-1.7 12.6-2.4 11.7-4.3 41.6-6.3 97-.3 7.9-1.1 14.5-2.5 19.2-1.2 4.4-2 10.3-2 14.7 0 4.1-.6 10.5-1.4 14.3-.8 3.7-1.7 9.3-2 12.3-1.8 18.7-2.7 33.3-2.3 35.2.3 1.2-.1 5.2-.8 9-1.8 8.4-2 41.8-.4 53.4.6 4.2 2.4 11 4 15.1 1.6 4 3.6 10.8 4.5 15 1.5 7.5 4.4 14.5 6.4 15.8.5.3 1.4 2.5 2 4.8.6 2.3 1.7 5.5 2.4 7.2 2.3 5.3 8 16.9 10.2 20.5 1.1 1.9 2.6 5.1 3.4 7 .8 1.9 2.8 5.3 4.6 7.5 1.7 2.2 3.9 5.3 4.8 7 .9 1.6 3.7 5.7 6.1 9 2.4 3.3 5.4 7.9 6.7 10.2 1.2 2.4 2.5 4.3 3 4.3.6 0 5.6 6.7 13.5 18.5 1.2 1.8 5 5.7 8.3 8.6 3.4 3 8.6 8.8 11.5 13 6.7 9.6 14.4 17.2 20 19.9 2.4 1.2 4.9 2.8 5.7 3.7.7.9 4 3.6 7.3 6s7.4 5.5 9 6.9c3.8 3.2 14.3 9.4 16 9.4.6 0 2 .9 3.1 2.1 1 1.1 5.3 4.5 9.6 7.5 6.7 4.7 8.7 5.5 15 6.5 12.8 1.9 12.2 1.5 12.9 9.4.8 8.2 4.7 20.1 8.3 25.4 2.8 4.1 4.7 12.2 6.8 29.1 1.6 13.1 1.5 68.9-.3 208.5-1.4 102.7-1.6 106.5-4.9 106.5-1.7 0-7-7.5-7.6-11-.4-1.9-1.3-4.7-2-6.2-1-2-1.4-7.7-1.4-22-.1-25.3-2.3-37.6-10.3-56-3-6.9-6.7-14.2-8.2-16.1-1.4-2-3.1-5.1-3.6-7.1-.5-1.9-2.5-5.6-4.5-8.3-1.9-2.6-4.3-6.7-5.4-9-2.8-5.8-9-13.5-18-22.3-4.4-4.2-8.2-8.9-8.8-10.7-.6-1.8-2.6-5.4-4.4-8-5.2-7.7-50.6-51.3-53.3-51.3-1.3 0-10-6.5-16.4-12.3-3.6-3.3-9.7-8-13.6-10.5-3.8-2.5-12.6-8.3-19.5-12.8-12.7-8.5-20.3-12.3-28.1-14.4-2.4-.7-7.3-2.7-10.9-4.5-3.6-1.8-9.4-4.2-13-5.4-3.5-1.3-8.8-3.4-11.7-4.8-2.9-1.3-7.9-2.8-11.1-3.3-3.1-.4-10.3-2.6-15.9-4.9-21.8-8.7-40.2-12.2-63.9-12-43.1.2-89.2 4.1-108.2 9-4.3 1.1-13.3 4.7-20.2 7.9-6.9 3.3-18.6 8-26 10.5-13.3 4.6-25.1 10-38 17.5-6 3.5-9.6 5.4-24.7 12.8-5.7 2.8-16.3 6.6-21.4 7.6-4.1.9-10.9 6.4-12.6 10.4-1.8 4.4-1.1 9.8 1.7 12.6 1.6 1.6 3.9 2.2 11.3 2.7 11.7.9 24.3 3.5 28.3 5.9 1.8 1 7 2.8 11.5 4 10.2 2.6 21.5 9.6 41.8 26.1 3.1 2.5 7.2 5.6 9.1 6.9 7 4.8 14.2 11.7 22.7 22 4.9 5.7 10.8 12.6 13.3 15.1 4.3 4.5 9.7 10.7 24.6 28.4 16.8 19.9 64.9 69 72.4 74 2.5 1.6 8.7 6.7 13.8 11.2 5.1 4.6 9.6 8.3 10.1 8.3s4.9 3 9.8 6.7c4.8 3.6 10.8 7.7 13.3 9 2.5 1.3 4.8 3 5.3 3.8 1.3 2.4 15.3 12.4 18.4 13.1 4.1 1.1 14.5 6 17.3 8.3 7.5 6 18.1 13.3 22 15.2 2.5 1.2 6.5 3.1 8.9 4.2 2.5 1.2 6.2 3.6 8.3 5.4 4.5 3.8 5.3 4 16 5.7 4.6.8 12.1 2.7 16.8 4.4 12.1 4.4 21.1 5.6 35.5 4.7 6.6-.5 16.7-.9 22.5-1 9.6-.1 11.1-.4 17.2-3.3 4.6-2.2 10.7-3.9 19-5.3 10.5-1.8 13.6-2.8 21.7-7 5.1-2.7 10-4.9 10.7-4.9.8 0 3.3-1.7 5.7-3.9 2.3-2.1 6-4.7 8.2-5.7 2.2-1 6.5-4.4 9.5-7.6 3.1-3.2 6.2-5.8 7-5.8 2.9 0 9.9 4.5 16.9 10.7 3.8 3.5 7.3 6.3 7.6 6.3.4 0 2 .9 3.6 2 4.1 3 4.9 7.1 3.4 17.1-.7 4.8-1.6 23.5-1.9 43.4-.7 34.3-1.5 52.1-3.6 77.8-.6 7-1.2 26.6-1.5 43.5-.2 16.9-.8 32.9-1.4 35.7-.6 3-1.2 38.1-1.5 87.5-.3 47.8-.9 86.5-1.5 92-.6 5.2-1.6 27.9-2.1 50.5-.5 22.5-1.4 49.8-1.9 60.5-1.8 35.7-3.2 81.5-3.7 120.2-.4 26.4-1 40.8-2 46.4-.8 4.4-1.4 11-1.4 14.7 0 6-.2 6.8-2.5 8.3-2.1 1.4-3 1.4-5.5.4-1.6-.7-3.5-1.8-4.1-2.6-2.2-2.7-3.6-12.7-2.7-19.5.9-7.2.3-36.8-1.3-56.4-.8-9.8-1.8-15.1-4-21.5-1.6-4.6-2.9-9.4-2.9-10.7 0-1.2-.7-4.8-1.5-8-.9-3.2-2-10-2.5-15.2-.6-5.4-1.9-11.3-3.1-14-2.8-6.2-5.8-14.7-7-19.9-.5-2.4-2.7-8-4.8-12.5-4.3-9.3-6.6-15.6-7.6-20.7-.4-1.9-2.8-6.6-5.3-10.4-4.2-6.1-4.7-7.4-4.5-11.8.3-6.3-1.6-10.9-5.6-13.9-1.8-1.3-4.5-4.4-6.1-7-1.7-2.5-4.2-5.9-5.5-7.5-1.4-1.6-2.8-3.8-3.1-4.9-.3-1.1-2.6-5.9-5-10.7-2.4-4.7-4.4-9.9-4.4-11.5 0-6.2-12.4-21.8-24.2-30.7-2.1-1.6-3.8-3.4-3.8-4.1 0-3.7-31.6-38.5-57.8-63.8-6.1-5.9-11.6-10.7-12.2-10.7-1.7 0-15.4-13.1-17.1-16.4-.9-1.7-3.5-4.2-5.7-5.6-5.1-3.2-25-16.8-32.5-22.3-3.3-2.3-6.3-5-6.9-6-.5-.9-3.1-2.8-5.7-4.2-2.7-1.3-6.1-3.5-7.7-4.8-3.3-2.7-7.8-5.1-15-7.8-2.8-1.1-5.9-3.1-7.1-4.7-2.1-2.9-11.9-8.2-15-8.2-.9 0-3.7-.9-6.2-2.1-2.5-1.1-6.6-2.9-9.1-4-2.5-1.2-7.2-3.8-10.5-5.9-4.4-2.9-8.7-4.6-16-6.3-5.5-1.3-11.4-3.1-13.2-4-1.8-.9-9-3.5-16-5.7-13.3-4.2-22.5-7.5-25.6-9.1-1.8-1-12.3-4.3-23.7-7.4-3.6-1-8.1-2.6-10-3.6-4.7-2.3-17.9-4.9-24.9-4.9-3.2 0-10-1.3-16-3-5.7-1.7-11.7-3-13.4-3-1.6 0-6.8-.9-11.6-1.9-20.4-4.6-42.8-8.1-51.3-8.1-3.6 0-8.5-.7-10.9-1.6-3-1.1-10.5-1.9-23.4-2.5-10.4-.4-26.2-1.3-35-1.9-14.9-1-55.5-2.5-100-3.7-17-.4-19.6-.7-24.5-2.8-5.4-2.3-6.5-2.4-46.4-2.9-24.5-.4-42.7-1.1-45.3-1.8-3.3-.8-6.3-.8-11.8.1-9.3 1.5-73.1.7-79.9-1-4.6-1.1-7-.5-11 3-5.5 4.9-5.2 10.3.9 14.1 2 1.2 4.5 4 5.6 6.4 1.2 2.2 3.4 5.4 4.9 7.1 2.4 2.7 8.1 12.9 12.5 22.5.9 1.9 5.5 7.9 10.4 13.3 5.3 5.9 9.7 11.8 11 15 3.6 8.3 8.2 17 10.1 19.2 2.2 2.4 8.4 14 9.5 17.5.4 1.4 2.4 4.1 4.4 6 2 1.9 4.9 6.2 6.5 9.5 1.6 3.3 3.8 7.8 4.9 10l4.5 9c1.3 2.7 3.3 6 4.5 7.2 1.1 1.2 2.9 4.6 4.1 7.5 1.2 2.9 4.7 9.2 7.8 13.9 3.1 4.7 6.8 10.8 8.3 13.5 1.4 2.7 4.6 8.3 7 12.4 2.5 4.1 5.6 9.5 7 12 1.4 2.5 3.6 6.3 4.9 8.5 1.2 2.2 4.7 8.5 7.6 14 3 5.5 6.9 12.5 8.7 15.5 1.8 3 3.3 6 3.3 6.5 0 2.5 12.5 26 17.7 33.1 3.1 4.4 7.6 11.7 10.1 16.4 6.2 12 17.3 27 23.6 31.9 2.1 1.7 5.8 5.6 8.1 8.6s5.7 6.6 7.4 8.1c1.8 1.5 5.8 6.1 9 10.3 6.5 8.5 17.3 19 23.7 23.1 2.3 1.4 9.8 8.2 16.6 15.1 7.6 7.7 14.6 13.7 18.3 15.9 3.3 1.9 9.7 6.9 14.3 11.2 5.2 4.9 10.6 8.9 15 11 3.7 1.8 9.6 5.4 13.2 7.9 3.6 2.6 10.8 6.8 16 9.4 5.2 2.6 13.4 7.2 18.1 10.1 4.7 3 12.2 7 16.6 8.8 4.5 1.9 10.7 5.2 14 7.4 8.4 5.7 16.9 9.8 28.5 13.6 5.7 1.8 15.4 5.7 21.6 8.5 6.2 2.8 14.5 6.2 18.5 7.6 4 1.3 8.6 3.1 10.3 4 1.6.8 3.3 1.5 3.7 1.5.5 0 8.3 2.9 17.4 6.5 11 4.4 19 6.9 24.1 7.6 4.2.6 10.6 2.4 14.2 3.9 3.6 1.6 8.3 3.1 10.5 3.5 8.8 1.3 28.4 5.8 35.5 8 4.1 1.3 12.2 3.3 18 4.5 5.8 1.1 14.9 3.6 20.3 5.5 13.3 4.7 24.3 6.5 40.6 6.5 7.5 0 24.6.9 38.1 1.9 33.3 2.5 36.3 2.6 102 2.6 49.3 0 58.9-.3 67.5-1.7 5.5-.9 12.1-2 14.8-2.3 2.6-.4 7.3-1.9 10.3-3.6 6.2-3.2 8.9-3.5 13.7-1.6 1.8.8 4.8 1.7 6.8 2.1 3.7.7 7.4 3.9 10.4 9.3 1.3 2.1 3.9 4.2 8.1 6.3 7.1 3.5 7.4 3.8 9.8 10.2 1.6 4.2 1.7 9.2 1.2 58.3-.3 29.5-.8 53.9-1 54.4-.3.4-.6 18.8-.6 40.7l-.1 39.9-3.1 6.7-3.1 6.8 1 23.7c1.8 43.7.6 61.3-4.1 61.3-.9 0-2.4-1.2-3.3-2.7-1.6-2.4-1.8-5.3-1.8-23.8-.1-20.6-.1-21.1-2.9-28.5-1.6-4.1-3.7-9.9-4.8-12.9-1.1-3-3.9-8.2-6.2-11.5-2.4-3.4-5.4-8.1-6.6-10.6-1.2-2.5-4.3-7.2-6.7-10.5-2.5-3.3-5.3-7.5-6.3-9.5-2-3.8-5.1-7.2-15-16.5-12-11.2-18.4-16.1-27.5-21-4.9-2.7-10.3-5.8-12-7.1-1.6-1.2-6.1-3.9-10-5.9-3.8-2.1-8.6-4.9-10.5-6.4-10.1-7.6-28.1-16.6-36-18.1-11.1-2-24.8-4-27.1-4-1.3 0-3.7-.7-5.3-1.5-1.5-.8-3.4-1.5-4.2-1.5-.8 0-5.5-1.3-10.6-2.9-7.8-2.5-12.6-3.2-30.3-4.5-27.5-2-41.5-2.2-67.5-.7-28.6 1.5-32.7 2.2-43.5 7.6-4.9 2.5-9.5 4.5-10.1 4.5-.6 0-7.4 2.5-15 5.6-7.7 3-17.9 6.4-22.9 7.4-4.9 1-10.8 2.8-13 4-2.1 1.1-4.4 2-5 2-.6 0-4.4 1.4-8.5 3.1-6.9 2.9-14 8-14 10.2 0 .5 1.7 2.6 3.8 4.7 3 3.1 4.7 3.9 9.2 4.5 10.6 1.3 19.6 3.8 28.1 7.6 4.8 2.2 9.1 3.9 9.6 3.9s3.8 3 7.4 6.7c5.8 5.9 10.1 11.6 17.1 22.1.9 1.4 3.3 4.4 5.3 6.6 4.8 5.4 9.6 12.6 13.6 20.6 1.8 3.6 5 8.8 7.1 11.6 2.1 2.8 3.8 5.5 3.8 5.9 0 .5 1.7 3.5 3.8 6.7 13.3 21 19.2 28.6 31.7 41.3 3.9 3.9 11.1 11.5 16 16.8 20.8 22.5 35.8 32.2 66.2 43.3l9.3 3.4 27.7.1c15.3 0 32.1-.4 37.3-1 8.7-1.1 13.7-2.1 39.5-8 5-1.1 12.8-3.4 17.5-5.1 4.7-1.6 9.2-3 10.1-3 2.1 0 13-5.3 18.4-9 7-4.6 11-6 17.2-5.9 9.8.2 11.3.9 15.5 6.9 2.1 3 4.5 6 5.3 6.6.8.6 2.8 2.8 4.5 4.8l2.9 3.8-.5 73.6c-.4 69.8-1.1 102.2-3.4 183.7-1.7 57.9-1.7 57.7-3.4 62.4-1.4 3.7-1.8 13.3-2.6 62-.5 31.7-1.2 62.5-1.5 68.6-.3 6-.5 26.1-.6 44.5-.1 39.6-.4 41.3-7.8 44.1-2.5.9-6.7 3.8-9.5 6.6s-6.9 6.3-9.1 7.8c-2.2 1.6-5.9 4.8-8.2 7.1-2.2 2.3-5.4 4.5-7 4.8-3 .8-10.3 5.4-22.7 14.2-9.7 6.9-16.7 9-34.7 10.3-10.2.8-13.6 1.4-17.5 3.4-4.5 2.3-9.1 3.8-20.3 6.7-2.9.8-6 2.7-9 5.6-2.5 2.5-6.8 5.5-9.6 6.8-6.6 3.1-21.7 18.2-25.4 25.4-.7 1.5-3.2 4.7-5.5 7.2-8.6 9.5-17.9 21.4-19.2 24.6-.8 1.8-2.7 4.8-4.3 6.6-1.6 1.8-3.2 4.9-3.6 6.8-1 4.9-2.8 8.1-7.5 13.5-2.2 2.5-4.3 5.8-4.6 7.3-.4 1.5-1.3 3.9-2.1 5.4l-1.4 2.8h310.3c304.6 0 310.2 0 307.2-1.9-1.7-1-4.3-3.1-5.7-4.5-1.5-1.5-3.7-2.6-5.4-2.6-3.3-.1-12.8-3.8-16.9-6.7-3.1-2.1-19.5-5.5-36-7.3-9.3-1-15.5-2.7-22-6.1-2.1-1-5.4-1.9-7.4-1.9-1.9 0-8.2-.9-14-1.9-9.2-1.6-10.7-2.2-13-4.8-3-3.6-7-5.8-13.6-7.4-3.2-.8-6.3-2.4-8.9-4.9-2.2-2.1-7.3-5.2-11.4-6.9-4-1.7-8.9-4.5-10.8-6.1-1.8-1.7-3.8-3-4.2-3-.5 0-5-2.9-10-6.5s-11.1-7.4-13.5-8.4c-2.4-1.1-4.6-2.6-4.9-3.6-.4-.9-3-2.7-5.9-3.9-2.9-1.3-8.4-4.7-12.2-7.5-3.8-2.8-8.6-5.6-10.8-6.2-2.1-.5-5.6-2.7-7.8-4.7-2.1-2-6.4-5-9.7-6.6-3.2-1.7-7.7-4.7-10-6.8-2.4-2.1-4.7-3.8-5.3-3.8-.6 0-3.4-1-6.1-2.1-4.1-1.8-5.7-3.3-9.3-8.8-5.8-8.8-7-13.8-5.8-22.8 1.1-7.9.2-14.8-2.5-19-1.5-2.3-1.8-5.2-1.9-18.3-.2-26.7-2.3-92.9-3.3-106.5-1-12.2-1.6-67-4.2-397.5-.6-80-1.5-138.1-2.1-143.5-1.2-10.1-1.4-15.7-2.9-64.5-.5-19-1.2-37.2-1.5-40.6-.8-8.5.8-13.8 5-16.3 6.2-3.8 8-3.1 18 7.2 5 5.2 10.2 10.8 11.5 12.6 2.7 3.7 10.7 9.8 16.9 13 2.4 1.2 6 3.7 8 5.5 5.2 4.7 20.2 12.6 24 12.6 1.8 0 4.2 1 5.9 2.4 5 4.2 13.3 8.6 16.3 8.6 1.6 0 4.7.7 6.7 1.5 8.4 3.2 27.6 6.6 56.7 10.1 19.2 2.2 23.3 2 53.6-2.7 23.1-3.5 34.3-4.9 40.7-4.9 6.9 0 10.6-1.2 16.7-5.4 2.9-2 5.1-2.6 9-2.6 6.2 0 18.6-2.9 32.1-7.4 5.5-1.9 12.9-4.2 16.5-5.2 4-1.2 7.8-3.1 10-5 2.3-2.1 5.4-3.5 8.9-4.3 2.9-.6 8.3-2.4 12-4 3.6-1.6 8.1-3.2 9.9-3.6 1.8-.4 6.9-2.7 11.3-5.1 4.3-2.4 8.1-4.4 8.3-4.4 1 0 30.3-14.4 31.6-15.5.8-.7 5.8-2.7 11-4.5 16.5-5.7 30.2-13.4 40.5-23 2.8-2.6 7.7-6.1 11-8 3.3-1.8 8.5-5 11.5-7s10.2-6.1 15.9-9c10.7-5.5 24-14.8 28.3-19.8 1.3-1.5 5.9-5.4 10.2-8.7 4.4-3.3 10.1-8.7 12.7-12 2.6-3.3 7.2-8.1 10.2-10.7 3-2.6 6.8-6.8 8.4-9.3 4.7-7.6 7.2-10.3 16.8-18 5.1-4 10.8-9.2 12.6-11.6 1.9-2.3 5-5.6 6.9-7.3 11.4-10.3 14-13.2 16.6-18.4 1.5-3.1 3.1-6.4 3.6-7.2.5-.8 1.5-3 2.4-4.8.8-1.9 4.5-6.5 8.1-10.2 3.6-3.8 7.6-8.4 8.9-10.3 1.3-1.9 4.5-5.1 7.3-7.1 5-3.7 16.1-15.1 16.1-16.5 0-.4 1.9-2.1 4.3-3.8 4-2.9 47-45.5 67.6-67 5.2-5.4 10.4-11.7 11.6-14 1.4-2.8 4-5.4 8.2-8.2 3.3-2.3 9.2-6.9 12.9-10.4 3.8-3.4 8.7-7.6 10.9-9.2 4.9-3.6 16-12.7 26.7-21.8 4.4-3.7 8.6-6.7 9.3-6.7.7 0 2.4-1.4 3.7-3.1 6.7-8.7 9.1-10.7 18-15.1 5.1-2.5 11.1-5.1 13.3-5.8 20.7-6.6 27.6-22.4 12.4-28.4-5-2-16.9-4.6-21-4.6-1.7 0-4.9-1.1-7.2-2.4-2.3-1.3-7.3-3.4-11.2-4.6-3.8-1.3-10.4-3.9-14.5-5.7-4.1-1.9-12-5.1-17.4-7-5.5-1.9-12.2-4.6-14.9-5.9-10.2-5.2-30.5-12.5-44.1-15.9-7.7-1.9-16.8-4.3-20.1-5.5-10.3-3.4-43.9-9.1-72-12.1-5.5-.6-14.2-1.9-19.4-3-14.8-3-63-2.7-98.8.6-14.7 1.4-32.2 3-38.8 3.5-6.6.6-12.6 1.3-13.3 1.5-.6.2-8.1.9-16.5 1.5-8.3.6-20.6 2-27.2 3-6.6 1.1-17.8 2.4-25 3-7.1.6-16.4 1.9-20.5 3-4.1 1.1-14.3 3.3-22.7 4.9-24.4 4.8-51.8 14.4-71.3 25.1-5.8 3.1-19.5 10.3-30.5 15.9s-23.1 12.5-26.9 15.4c-3.8 2.8-8.6 6.3-10.7 7.7-4.4 2.9-16.7 12.3-25.5 19.5-3.3 2.7-11.2 8.5-17.5 12.9-8.3 5.7-15.3 11.8-25.9 22.6-8 8.1-17.2 16.7-20.5 19.1-12.3 9-43.6 40.6-47.6 48.1-2.4 4.4-15.6 21.5-23.9 30.9-6.9 7.8-10 12.4-14.6 21.6-6.5 12.9-12.9 22.4-23.8 35.3-10.4 12.2-15.3 19.9-21.3 33.2-4.7 10.5-6.6 16.1-13.5 39.3-2.4 8.1-7.4 18.5-8.8 18.5-2.9 0-2.7 9.9-4.5-255-.3-41.5-1-95.6-1.6-120.2-.6-24.6-.8-45.5-.5-46.5.4-1.3-.8-65-1.5-79.9-.2-3.3 3-9.2 6.8-12.7 1.9-1.8 4.6-5.7 6-8.8 4.1-9.5 8.6-9.7 18.8-.9 3.7 3.3 8.9 7 11.4 8.1 2.5 1.2 6 3.2 7.6 4.4 1.7 1.2 4.1 2.6 5.5 3 1.4.4 6.6 2.5 11.6 4.6 18.4 7.8 20.6 8.1 52.4 8.4 15.7.2 40.9.8 56 1.3 36 1.3 62.1-.1 75-3.8 1.9-.5 7.8-1 13-1 5.6 0 13.3-.8 19-2 5.2-1.1 12.9-2.5 17-3 25.4-3.2 32.1-4.1 42.7-6 10.7-2 30.7-8.7 36.8-12.4 1.1-.7 4-1.8 6.5-2.5 5.3-1.5 11.6-4.8 18.2-9.4 2.5-1.7 7.1-4.7 10.1-6.5 4.7-2.8 13.1-10.9 19.7-18.7.8-.9 5.5-4.9 10.4-8.9 5.2-4.1 11-9.9 13.7-13.6 2.7-3.6 8.8-11.1 13.6-16.8 6.9-8 10.3-13.3 15.8-24 3.9-7.5 8.2-15.5 9.6-17.7 6.4-10.2 20.4-46 21.9-55.8 1.6-10.7 15.6-45.9 23.3-58.5 5.6-9.3 14.4-27.6 17.6-36.7 1.7-4.6 3.9-10.2 5.1-12.4 1.1-2.2 2-4.4 2-4.9 0-2.7 10-18.5 14.9-23.7 3.2-3.3 7.8-8.7 10.3-12 2.4-3.3 7.1-8.7 10.4-12 3.3-3.3 8.6-9.5 11.8-13.7 5.9-7.9 14.4-15.6 20.6-18.8 6.9-3.5 10.2-11.7 6.3-15.3-1-.8-4-2.5-6.6-3.6-2.6-1.1-6.2-3.2-8-4.5-1.8-1.3-6.1-3.8-9.7-5.6-3.6-1.8-7.4-3.7-8.5-4.3-1.1-.6-4.2-2.3-7-3.8-7.1-3.9-33.4-12.4-44-14.4-4.9-.9-15.5-2.2-23.5-3-16.1-1.5-18.8-1.9-31-4.7-17.4-4.1-52.7-4.9-85.5-1.9-6 .6-18.6 1.7-28 2.6-32.4 3-40.3 3.4-43.7 2.5-6.1-1.8-24.9 2.9-42.3 10.5-7.1 3.1-16.7 7-21.3 8.5-4.6 1.6-11.5 4.4-15.5 6.4-4 1.9-9.1 4-11.4 4.6-6.1 1.5-16 6.1-23.5 10.9-3.6 2.3-7.1 4.1-7.9 4.1-2.9 0-16.8 6.8-25 12.1-4.6 3.1-14.5 11.3-21.9 18.3-7.4 7.1-20.5 18-29 24.3-33.3 24.8-71.2 68.4-86.3 99.3-1.5 3-5.9 9.5-9.8 14.4-3.9 4.9-9.5 13-12.4 18-2.9 5-7.4 12.2-9.9 15.9-2.5 3.7-6.1 10-8 14-4.2 8.9-12.6 33.9-12.6 37.5 0 4.6-5.8 42.6-6.9 45.4-2.3 6.1-4.4 2.5-6.1-10.2-2.4-18.1-4.2-227.6-2.1-245.5.7-5.8.6-9.8-.4-15-1.6-8.2-2.4-165.1-1.1-211.5.5-17.3.4-32-.2-39.7-1-10.9-.9-13 .8-19 1.7-6.3 2.4-7.3 9.8-14.3 8.2-7.8 10.2-10.7 13.3-19.8 1-2.9 3.3-7 5-9 1.8-2 4.5-6.6 6.1-10.2 1.7-3.6 4.3-9.2 5.9-12.5 5.3-11.1 5.4-12.3 5.2-61.5-.2-46.1-.3-48.3-4.3-59.3-1.1-3.2-2.7-10.4-3.5-16-3.6-25.5-4.7-31.1-8.6-42.8-2.2-6.8-5.1-16.6-6.4-21.7-1.3-5.1-3.3-10.9-4.4-13-1.1-2-4-8.4-6.4-14.2-2.5-5.8-6.1-12.9-8.1-15.9-2-2.9-3.6-5.7-3.6-6.2 0-1.7-10.4-18.4-14-22.3-2-2.3-5.6-7-8-10.5-5.6-8.4-12.6-15.8-17-18.1-1.9-1-4.6-3-6-4.5-1.4-1.5-5-4.4-8-6.3-3-1.9-10.5-8.3-16.6-14.1-14.2-13.5-21.1-19.4-24.9-21.4-1.7-.8-5.1-3.5-7.6-5.9-14.2-13.7-25.1-23.4-28.1-24.8-3.6-1.9-22.2-19-30.1-27.8-.7-.7-4.8-4.8-9.2-9-4.4-4.2-8.7-8.6-9.5-9.8-.8-1.1-2.5-2.7-3.7-3.5-1.3-.9-3.6-3.4-5.3-5.7-3-4.1-8.3-7.2-12.4-7.2-1.1 0-3.5.9-5.3 2zM2008.5 4804c-17.9 1.4-46.9 3.9-51 4.5-2.2.2-17.5.9-34 1.5-32.7 1.1-64.4 3-102.5 6-13.5 1.1-46.3 3.3-73 5-53 3.3-79.6 6-91.1 8.9-9.6 2.5-24.9 4.7-42.4 6.1-33.3 2.6-39.7 3.2-53 5.1-7.7 1.1-25 4.6-38.5 7.9-13.5 3.2-36.9 8.6-52 11.9-15.1 3.3-39 8.5-53 11.6-14 3.1-38.8 8.3-55 11.6-16.2 3.3-32.2 6.7-35.5 7.5-16.2 4.1-46.8 14-53 17.2-7.4 3.7-33.2 15.1-52.5 23.2-6.3 2.6-16.2 7.1-22 9.8-5.8 2.8-16.7 7.1-24.4 9.7-32 10.5-54.5 25.6-89.3 59.8-14.6 14.4-16.9 17.1-23.1 27.6-3.8 6.4-7.4 12.6-8 13.7-1.4 2.7-4.7 24.1-6.1 39.4-3.4 37.1-5.4 98.1-4.9 149.5l.4 40 5.7 22.3c3.1 12.2 6.6 24.4 7.8 27.2 2.6 5.9 6 9.2 24.6 23.3 7.8 5.9 15.4 12.2 16.8 13.9 3 3.5 9.9 17.9 11.5 23.8.6 2.1 1.9 8.5 3 14.2 1.1 5.6 2.7 13.2 3.5 16.8.8 3.6 1.9 12.6 2.5 20 1.9 27.1 3 38.7 4.6 46.4 2.3 11 3.2 29.6 4.3 88.6 1.2 59.2 2.7 94.2 4.5 105 .7 4.1 2.5 11.3 3.8 16 3.5 11.7 4.6 23.7 5.3 57 .7 32.6 2 51.3 4 58.5 2.7 9.8 5.4 42.2 9 108 4 74.3 11.8 173 18 229 2.1 19.2 5.2 55.6 7.1 84 1.6 25.3 5 58.3 7.9 77.5 1.9 13 3.3 30.4 4.5 57 .7 13.8 1.8 26.8 3 33.5 2.2 11.6 5.4 35.1 6.5 47.2l.7 7.3h1091.9c666.7 0 1091.9-.4 1091.9-.9s-1.8-4.2-4-8.3c-2.1-4-5.1-10.4-6.5-14.1-1.4-3.8-3.6-9-5-11.7-3.2-6.2-9.6-22.3-15.1-37.6-6.8-19.3-18.3-41.3-30.1-57.8-3.5-4.8-8.4-12.7-10.9-17.5-2.6-4.7-9.8-17.7-16-28.7-16.9-30.1-19.5-37.4-21.4-61.9-1.1-15.2-2.5-26.9-4.1-35.5-1.7-9.1-9.9-36-13.1-43-1.7-3.6-4-9.2-5.3-12.5-5.6-14.2-15.7-34.9-23-47-14.5-24.2-50.2-76.2-74.1-108-29.1-38.9-101.5-103-147.3-130.6-11.3-6.8-15.8-8.5-37.6-14.4-8.1-2.3-17.3-5.7-24.5-9.2l-11.5-5.5-21-21.3c-23.1-23.3-37.1-36.3-63.5-59-25.4-21.8-33.8-28.4-76.2-60.2-21.1-15.7-43.9-33.1-50.8-38.5l-12.5-9.8.7-23.8c2.7-90.7 5.1-130.1 9.8-157.2 1.5-9 3.9-44.4 5-76 .6-16.2 1.5-41.6 2-56.4.5-14.8 1-26.9 1.2-27 2.1-1.3 18.7-15.3 23.1-19.5 7.9-7.6 11.5-12.9 12.8-19.3.6-2.9 3.3-9.8 5.9-15.3 3.4-7 5.3-12.3 6.1-17.5 1.6-10.3 2.5-167.6 1-192.4-1.2-20.7-3.6-31.9-9.9-46.8-2.2-5.1-4.3-10.4-4.7-11.8-2.5-8.4-16.9-29.3-26.3-38.1-10.9-10.2-12.9-11.4-43.2-27.9-45.2-24.5-55.3-29.4-68.5-34-4.4-1.5-13.4-4.6-20-6.9-26.3-9.1-57.7-17.2-77.5-20.1-26.6-3.8-107.2-13.9-131-16.4-59.6-6.3-130.3-10.8-213.5-13.6-39.2-1.3-165.2-2.1-178-1zM4162.5 4964c-6 2.5-16.6 15.1-21.4 25.5-2.1 4.4-8.5 16.8-14.3 27.6-14.7 27-16.2 30.8-16.2 39.4 0 5.2.5 8 2.1 11 7.7 14.6 11.7 42.7 7.4 52.1-3.9 8.7-27.9 42.8-65 92.4-27.7 37.1-30.1 40.8-30.1 46.5 0 6.1 3.9 11.4 18.6 25 16.7 15.5 30.3 29 33.9 33.8 2.7 3.7 2.8 4.1 1.7 8.3-.7 2.5-3.4 9.3-6.1 15.2-8.6 18.8-13.1 33.2-23.2 74.2-1.7 6.9-4.4 16.3-6 21-1.7 4.7-3.9 11.6-5 15.4-1.1 3.8-4.3 11.9-7 18-14.4 31.7-14.6 32.3-10.7 40.8 3.5 7.3 14 21.8 20 27.4l5 4.7 11.7-.6c13.2-.7 26.2-3.4 35.3-7.3 3.5-1.5 11.7-4.4 18.3-6.6 45.8-14.8 60.4-19.7 71-23.6 6.6-2.4 19.4-6.5 28.5-9.2 9.1-2.6 24.6-7.7 34.5-11.3 9.9-3.6 24.2-8.8 31.8-11.6 7.5-2.8 16.5-5.5 20-6.2 3.4-.6 9.1-1.9 12.7-2.9 3.6-1 9-2.4 12-3.1 6.3-1.4 13-4.1 31.5-12.6 14.3-6.6 19.1-8.5 34-13.3 5.5-1.8 16.4-6.1 24.2-9.6 16.7-7.6 24.7-9.8 30.6-8.9 5.4.9 11.1 3.9 13.1 6.7 3.7 5.2 1.1 16.3-7.9 33.6-7.7 14.7-15.6 25.2-27 35.7-71.3 65.8-171.4 155.6-229 205.5-34.6 30.1-43.2 37.6-56.7 50-6.3 5.8-21 18.5-32.6 28.3-26.7 22.4-40.3 35-66.3 61.3-25.4 25.7-32.6 33.5-53.9 58.9-16.8 19.9-22 25.9-42.1 47.7-5.8 6.3-16.1 18.2-23 26.4-20.7 24.8-63.9 74-103.3 117.4-27.2 30.1-34.3 39.9-40.7 56.4-12.4 32.2-15.8 73-21.9 264.6-.5 17.9-1.3 36.4-1.6 41.2l-.6 8.8h2762.4l2762.3-.1 12.1-13.2c26.1-28.4 57-65 65.4-77.3 5.2-7.6 6.2-11.6 5.3-20.1-.4-3.7-.6-8.8-.5-11.3 0-2.5-.8-8.8-1.8-14-1.1-5.2-2.4-14.9-2.9-21.5-1.3-14.6-2.1-17.6-7.7-28-2.4-4.5-4.4-9.3-4.4-10.6 0-4.9-11.2-19.7-31-40.9-33.5-36-68-75.9-107.5-124.5-25.2-30.9-65.2-75.3-113.6-126-25.1-26.3-36.9-37.6-66.9-64.1-8-7-19.4-17.4-25.5-22.9-15.9-14.6-42.1-37.6-64-56-56.7-47.6-118.8-102.8-165-146.5-7.1-6.8-24.7-22.9-39-35.8-29.4-26.7-49.2-46-52.4-51.2-1.1-1.9-2.1-4.5-2.1-5.6 0-1.2-2.5-7.2-5.7-13.3-4.8-9.5-5.6-11.9-5.7-16.9-.1-4 .5-6.7 1.7-8.5 1.6-2.5 2.2-2.7 8.8-2.7 17.4 0 40.6 5.1 50.1 11.1 16 10 33.3 17.6 44.9 19.7 3.1.6 10.5 3.3 16.5 6s13.3 5.5 16.3 6.1c3 .6 9.5 3 14.5 5.3 5 2.2 25.5 9.6 45.6 16.3 20.1 6.7 42 14.2 48.7 16.8 17.2 6.4 41 13.6 50.5 15.3 4.4.8 10.7 2.6 14.1 4 13.4 5.7 19.5 7.6 27.7 8.8 4.7.7 11.4 2.6 15 4.1 14.8 6.2 21.7 7.8 34.5 7.9 11.1.1 12.4-.1 18-2.7 9.6-4.5 32.5-29.1 32.5-34.9 0-1.1-2.2-6.1-4.9-11.1-3-5.5-6.4-14-8.5-21.2-4.2-14.3-5.5-17.9-9.4-26.6-1.7-3.6-3.5-9.4-4.2-13-2.2-12.7-4.1-19.3-7.9-27.8-2.1-4.7-4.6-12.3-5.4-16.9-.9-4.5-3.2-11.8-5.1-16.1-4.9-10.8-6.4-15.3-7.6-22.5-.6-3.8-2.6-9.5-5.6-15.3-3.7-7.2-4.5-9.7-4-12 .5-1.9 8.5-10.6 24.3-26.3 13-12.9 25.4-25.8 27.6-28.7 3.5-4.7 3.8-5.6 2.9-8.2-1.4-3.9-6.4-11.7-16.4-25.4-4.5-6.2-9.7-14.1-11.4-17.7-1.8-3.6-5.9-9.4-9.1-13-10.1-11.5-13.9-16.2-21.1-27.1-7.3-11-13.7-19-25.8-32.3-11-12-11.8-14.2-12.2-31.6-.5-20.6 1.3-35.7 6.2-52.8 1.2-4.3 1.3-6.4.5-10.4-2.8-13-18.3-44-27.9-55.9-1.3-1.5-2.4-5-3-8.9-1.1-7.9-4.5-12.4-12.1-16.3-9-4.5-14.1-4.6-27.2-.4-6.2 2-15.9 5-21.7 6.7-5.8 1.7-23.1 7.1-38.5 12-15.4 4.9-32.9 10.4-39 12.3-6 1.9-15 4.9-20 6.7-4.9 1.7-13.7 4.3-19.5 5.7-10.3 2.5-28.2 9.2-37 13.8-2.5 1.4-7 3.4-10 4.5-3 1.2-14.9 6.8-26.5 12.4-11.5 5.7-24.8 12.2-29.5 14.4-4.7 2.3-15.1 7.9-23.2 12.4-8.1 4.6-18.6 10.4-23.5 13.1-25.1 13.5-33.2 19.1-54.3 37.2-26.2 22.4-58 54.3-77.2 77.4-4.4 5.3-13.5 18-20.4 28.3-11.1 16.9-12.7 18.8-15.1 18.8-11.4 0-77-7.1-79.3-8.5-1.2-.7-18.7-3.5-31.5-5-18.3-2.1-58.4-4.7-59.8-3.8-9 5.3-75.2 56.8-89.7 69.8-4.1 3.7-9.4 7.6-11.6 8.6-5.5 2.5-16 10.1-31.1 22.5-23.2 19-47.5 35.3-70.3 46.9-17.4 8.8-25.7 11.9-44.3 16.6-8.9 2.2-28.8 8-44.2 12.9-40.5 12.7-54.5 16.9-59 17.6-2.2.3-11.1 2.3-19.8 4.5-15.8 3.9-35.7 7.9-51.7 10.4-24.9 3.8-31.3 5.1-51.5 10-12.1 3-29.2 7.5-38 10s-21.2 5.4-27.5 6.6c-19.4 3.5-40 8.9-61 15.9-6.3 2.2-16.2 4.9-22 6-5.8 1.2-15.7 3.6-22.1 5.5-6.4 1.8-14.9 4-19 4.9-15.2 3.2-24.5 5.4-27.4 6.6-7.5 3.1-46.9 16.1-54.5 18-4.7 1.2-13.5 4.6-19.6 7.6-6.2 3-11.6 5.4-12.1 5.4-.6 0-7.3 3-14.9 6.7-7.6 3.7-19.7 8.6-26.9 10.9-7.1 2.3-18.4 6.3-25 8.9-6.6 2.6-16.3 6-21.5 7.5-5.2 1.5-18.5 5.9-29.5 9.7-11 3.9-27 9.4-35.5 12.3-8.5 2.9-18.9 6.8-23 8.6-4.1 1.9-11.8 4.4-17 5.7-5.2 1.3-16.1 5.2-24.1 8.5-8.1 3.4-23.4 9.5-34 13.5-29.1 11.1-43.4 17.2-62.2 26.4-32.6 16-47.8 26.4-69.5 47.6-19.5 18.9-19.8 19-42.5 18.5-15.5-.3-17.6-.5-20.7-2.4-4.8-3-14.4-4.9-36-7.4-10.2-1.1-25.5-3.1-34-4.5-19.9-3-41.1-6.1-52.5-7.6-4.9-.6-12.9-1.9-17.7-3-4.8-1-13.3-2.6-19-3.4-11.4-1.7-34.7-6.2-53.3-10.2-6.6-1.4-15.5-3.2-19.7-3.9-23.3-3.9-61.8-12.8-66.9-15.4-3.2-1.7-3.9-2.9-3.9-6.6 0-5.7 5-8.7 27-15.9 19.6-6.5 26.8-9.6 32.3-13.8 2.9-2.2 6.7-4 10-4.7 4.4-.9 7.2-2.5 14.6-8.4 20.7-16.5 63-58.2 73.9-72.6 2.3-3.1 5.7-8.9 7.7-13s4.7-9.3 6-11.5c3.3-5.3 3.5-14.5.5-17.5-3.3-3.3-10.9-2.6-25.7 2.1-16.2 5.1-23.9 6.7-37.7 7.9-12.5 1-18.6 2.8-26.6 7.7-4.1 2.4-8 3.7-14.4 4.9-7.8 1.3-16.9 4.3-40.1 12.8-8.9 3.3-16.4 3.5-19.1.5-1.8-2-1.9-4-1.9-29.8v-27.6l-2.8-4.3c-1.6-2.4-4.4-8.5-6.3-13.5-6.5-17.1-19.6-38.9-27.8-46.5-3.8-3.5-5.2-4.2-8.8-4.2-3.7 0-4.7.6-8.8 4.8-13.5 14-44.2 83.3-50.6 114.2-2.2 10.9-2.3 25.7-.1 33 .9 3 2.4 8 3.3 11.1 4.2 14.2-2.6 20.3-20 17.7-12-1.7-15.3-.3-27.7 12.1-13.2 13.3-19 22.2-20.4 31.5-1 6.2-5.2 11.8-12.7 16.7-8.8 5.6-16.9 7.8-33.3 9-7.7.5-19.4 2.1-26 3.5-29.1 6-37.2 7.4-56.5 9.8-22.4 2.8-23.9 3.2-38.5 8.1-5.5 1.8-13.8 3.8-18.5 4.4-4.7.6-12.3 1.6-17 2.2-4.7.6-16.4 2.6-26 4.5-9.6 1.9-22.6 3.9-28.9 4.4-15.1 1.3-31.4 4.2-51.3 9-9 2.2-29.1 6.2-44.8 8.9-15.7 2.7-40 7.2-54 10-14 2.7-34.6 6.6-45.8 8.6-24.1 4.2-34.4 6.4-48.9 10.6-13 3.7-23 4.2-28.3 1.4-12.3-6.3-19.8-16.8-51-71-27.5-47.7-42.4-69.3-61.8-89.6-27.1-28.3-55.9-46.5-112.2-70.8-10.2-4.4-22.1-9.5-26.5-11.5-4.5-2-11.7-4.3-16-5.2-4.8-1-13-3.9-20.5-7.4-6.9-3.1-18.8-8.1-26.5-11-7.7-2.9-17.6-7-22.1-9-4.4-2-13-5.2-19-6.9-6-1.8-13.4-4.1-16.4-5.2-3-1.1-12.2-4.5-20.5-7.5-8.2-3-19.9-7.5-26-10-11.9-4.9-26.5-10.4-44-16.5-6-2.1-15.3-5.4-20.5-7.4-5.2-2-13.8-5.2-19-7.1-5.2-2-18-6.9-28.5-11.1-10.4-4.1-25.1-9.9-32.5-12.8-13.4-5.3-32.7-10.8-49-14-4.7-.9-14.6-3.7-22-6.1-7.4-2.4-18.2-5.3-23.9-6.4-5.7-1.2-12-2.8-14-3.7-8.1-3.4-20.8-7.3-32.4-9.9-6.7-1.4-17.1-4.2-23.1-6-6-1.9-20.4-5.7-32-8.5-11.6-2.8-42-10.2-67.6-16.5-25.6-6.2-53.7-12.7-62.5-14.4-8.8-1.7-20-4-25-5-4.9-1.1-10.6-2-12.5-2-5.2 0-18.6-3.4-27.6-7.1-10.5-4.2-34.8-11.1-54.7-15.4-42.6-9.3-51.3-11.9-70.2-20.9-21.1-10.1-42.4-24-79.5-52-12.4-9.4-34.4-25.9-48.9-36.8-14.4-10.9-31.5-24.2-38-29.6-15.7-13.1-17.9-14.7-26.1-18.6-14.6-7-25.9-7.1-78.5-.6-51.9 6.3-69.2 8.9-80.4 11.6-10 2.5-10.5 2.5-14.7.9-4.4-1.7-16.1-12.5-18-16.7-.6-1.2-2.1-4.6-3.4-7.3-4.3-9.7-23.2-34.7-41.3-54.7-17.7-19.5-67.5-59.3-99.8-79.6-21.4-13.5-75.7-40.5-112.9-56.2-10.7-4.5-29.9-12.6-42.5-18-12.7-5.4-27.1-11-32-12.5-5-1.5-25-8-44.5-14.5-36.7-12.3-74-23-79.4-22.9-1.7 0-4 .4-5.1.9z"/></svg>